<svg width="115" height="38" viewBox="0 0 115 38" fill="none" xmlns="http://www.w3.org/2000/svg">
<path fill-rule="evenodd" clip-rule="evenodd" d="M52.1213 15.0405V7.52026C52.1213 3.3672 48.8836 0 44.8903 0H30.4282V37.6013H37.6592V22.5608H39.467L44.8903 30.0811V37.6013H52.1213V30.0811L46.5538 22.3608C49.7454 21.5792 52.1213 18.5982 52.1213 15.0405ZM44.8903 7.52026H37.6592V15.0405H44.8903V7.52026Z" fill="white"/>
<path d="M92.6147 0V37.6013H99.8458V22.5608H107.077C111.07 22.5608 114.308 19.1936 114.308 15.0405V7.52026C114.308 3.3672 111.07 0 107.077 0H92.6147ZM107.077 15.0405H99.8458V7.52026H107.077V15.0405Z" fill="white"/>
<path d="M83.9376 7.52026V0H60.7983V7.52026H68.5114V30.0811H60.7983V37.6013H83.9376V30.0811H76.2245V7.52026H83.9376Z" fill="white"/>
<path d="M0.0576172 0V37.6013H10.9042C16.8951 37.6013 21.7507 32.5515 21.7507 26.3209V11.2804C21.7507 5.04986 16.8951 0 10.9042 0H0.0576172ZM10.9042 30.0811H7.28864V7.52026H10.9042C12.9017 7.52026 14.5197 9.20292 14.5197 11.2804V26.3209C14.5197 28.3984 12.9017 30.0811 10.9042 30.0811Z" fill="white" />
</svg>