<svg width="144" height="38" viewBox="0 0 144 38" fill="none" xmlns="http://www.w3.org/2000/svg">
<path d="M132.422 37.6013C129.529 37.6013 126.899 36.5034 124.902 34.7117C122.904 36.5034 120.275 37.6013 117.382 37.6013C111.151 37.6013 106.102 32.5515 106.102 26.3209V0H113.622V26.3209C113.622 28.3984 115.304 30.0811 117.382 30.0811C119.459 30.0811 121.142 28.3984 121.142 26.3209V0H128.662V26.3209C128.662 28.3984 130.345 30.0811 132.422 30.0811C134.5 30.0811 136.183 28.3984 136.183 26.3209V0H143.703V26.3209C143.703 32.5515 138.653 37.6013 132.422 37.6013Z" fill="white"/>
<path d="M75.731 7.52026V30.0811C75.731 34.2341 78.9686 37.6013 82.962 37.6013H90.193C94.1863 37.6013 97.424 34.2341 97.424 30.0811V7.52026C97.424 3.3672 94.1863 0 90.193 0H82.962C78.9686 0 75.731 3.3672 75.731 7.52026ZM90.193 30.0811H82.962V7.52026H90.193V30.0811Z" fill="white"/>
<path d="M25.8374 0C23.0553 0 20.5262 1.09796 18.6064 2.88966C16.6847 1.09796 14.1575 0 11.3753 0C5.38444 0 0.528809 5.04986 0.528809 11.2804V37.6013H7.75983V11.2804C7.75983 9.20292 9.37777 7.52026 11.3753 7.52026C13.3729 7.52026 14.9909 9.20292 14.9909 11.2804V37.6013H22.2219V11.2804C22.2219 9.20292 23.8398 7.52026 25.8374 7.52026C27.835 7.52026 29.4529 9.20292 29.4529 11.2804V37.6013H36.6839V11.2804C36.6839 5.04986 31.8283 0 25.8374 0Z" fill="white"/>
<path d="M67.0542 7.52026V0H52.5921H45.3611V37.6013H67.0542V30.0811H52.5921V22.5608H63.4386V15.0405H52.5921V7.52026H67.0542Z" fill="white"/>
</svg>