<?xml version="1.0" encoding="UTF-8" standalone="no"?>
<!DOCTYPE svg PUBLIC "-//W3C//DTD SVG 1.1//EN" "http://www.w3.org/Graphics/SVG/1.1/DTD/svg11.dtd">
<!-- Created with Vectornator (http://vectornator.io/) -->
<svg height="100%" stroke-miterlimit="10" style="fill-rule:nonzero;clip-rule:evenodd;stroke-linecap:round;stroke-linejoin:round;" version="1.1" viewBox="0 0 795.227 1033.61" width="100%" xml:space="preserve" xmlns="http://www.w3.org/2000/svg" xmlns:xlink="http://www.w3.org/1999/xlink">
<defs/>
<g id="Layer-1">
<g opacity="1">
<path d="M428.388 617.547C426.182 619.753 429.416 625.804 426.388 626.047C422.222 626.38 414.097 622.872 413.888 627.047C413.572 633.372 414.35 639.73 413.888 646.047C413.555 650.599 403 644.568 402.888 648.547C402.564 660.042 402.564 671.551 402.888 683.047C402.901 683.518 403.417 684.04 403.888 684.047C429.053 684.375 454.224 683.718 479.388 684.047C483.734 684.103 480.313 692.701 480.388 697.047C480.486 702.715 481.046 708.38 480.888 714.047C480.8 717.203 466.496 715.898 466.388 714.547C466.055 710.38 469.568 702.113 465.388 702.047C444.724 701.719 424.052 701.719 403.388 702.047C402.917 702.054 402.402 702.575 402.388 703.047C402.231 708.38 403.045 713.713 402.888 719.047C402.713 725.009 384.424 714.437 383.888 721.047C383.43 726.695 383.574 732.389 383.888 738.047C383.914 738.517 384.418 739.019 384.888 739.047C390.212 739.36 395.564 738.733 400.888 739.047C405.078 739.293 402.388 747.35 402.388 751.547C402.388 752.164 401.687 753.449 401.388 754.047C401.722 754.38 402.371 754.575 402.388 755.047C402.709 763.874 402.52 772.714 402.388 781.547C402.348 784.259 403.597 789.396 400.888 789.547C395.23 789.861 389.546 789.861 383.888 789.547C380.046 789.333 382.79 781.893 382.888 778.047C382.983 774.366 385.564 767.257 381.888 767.047C370.791 766.412 360.308 767.906 349.888 767.547C332.655 766.952 315.114 766.281 297.888 767.047C295.01 767.174 296.584 788.942 295.888 794.047C295.02 800.411 276.044 789.953 275.888 796.047C275.73 802.213 275.915 808.396 276.388 814.547C276.424 815.017 276.917 815.535 277.388 815.547C290.384 815.871 303.392 815.222 316.388 815.547C316.859 815.558 317.361 816.076 317.388 816.547C317.701 821.871 317.701 827.222 317.388 832.547C317.361 833.017 316.859 833.534 316.388 833.547C303.726 833.871 291.051 833.871 278.388 833.547C274.603 833.449 280.707 820.366 276.388 816.047C271.855 820.58 280.254 832.98 274.388 834.047C267.501 835.299 260.384 834.288 253.388 834.047C252.917 834.03 252.416 833.517 252.388 833.047C252.044 827.202 255.028 819.686 250.888 815.547C256.59 809.845 251.122 800.865 250.888 794.547C250.58 786.219 251.904 777.818 250.888 769.547C250.687 767.909 248.555 767.213 247.388 766.047C243.318 769.099 219.276 767.464 211.888 767.547C201.388 767.663 190.878 767.562 180.388 768.047C175.476 768.273 183.326 782.747 178.388 783.047C173.231 783.359 168.045 783.359 162.888 783.047C157.916 782.745 165.953 768.68 160.888 768.047C158.568 767.757 143.643 766.915 143.388 769.547C142.939 774.192 143.388 778.88 143.388 783.547C143.388 785.781 142.865 788 143.888 790.047C139.525 794.41 128.535 789.239 128.388 792.547C128.07 799.706 128.232 806.882 128.388 814.047C128.4 814.573 128.722 815.047 128.888 815.547C169.222 815.547 209.556 815.216 249.888 815.547C250.36 815.55 250.875 816.075 250.888 816.547C251.045 822.047 250.858 827.564 250.388 833.047C250.348 833.516 249.859 834.025 249.388 834.047C242.562 834.364 235.714 833.729 228.888 834.047C228.417 834.068 227.903 834.575 227.888 835.047C227.565 845.375 227.565 855.718 227.888 866.047C227.903 866.518 228.417 867.045 228.888 867.047C272.555 867.213 316.221 866.547 359.888 866.547C380.335 866.547 401.998 865.688 422.888 866.547C423.359 866.566 423.869 867.076 423.888 867.547C425.068 897.047 424.61 932.871 424.388 960.547C424.372 962.603 420.45 961.261 420.388 963.047C420.215 968.055 419.804 973.293 421.388 978.047C473.24 978.047 523.898 979.044 576.388 978.547C579.407 978.518 577.263 972.562 577.388 969.547C577.694 962.212 577.388 954.968 577.388 947.547C577.388 909.713 577.723 871.88 577.888 834.047C578.077 790.82 578.114 746.948 577.388 703.047C577.075 684.093 504.747 720.751 503.388 701.047C502.548 688.858 502.895 683.579 504.888 683.547C524.885 683.219 544.888 683.455 564.888 683.547C581.389 683.622 597.888 684.21 614.388 684.047C614.86 684.042 615.379 683.518 615.388 683.047C615.715 665.716 615.388 648.38 615.388 631.047C615.388 629.713 615.712 628.34 615.388 627.047C615.274 626.589 614.859 626.059 614.388 626.047C602.059 625.722 589.717 625.722 577.388 626.047C576.321 626.075 575.776 627.455 574.888 628.047C578.784 631.943 576.222 639.047 575.888 644.547C575.86 645.017 575.359 645.537 574.888 645.547C558.391 645.873 541.887 645.383 525.388 645.547C500.694 645.791 473.366 646.507 448.388 645.547C447.917 645.528 447.722 644.88 447.388 644.547C449.137 641.049 448.184 630.433 446.888 626.547C441.388 626.547 435.879 626.86 430.388 626.547C427.258 626.368 430.696 619.855 428.388 617.547Z" fill="#96d3f8" fill-rule="nonzero" opacity="1" stroke="none"/>
<path d="M405.388 35.5465C398.881 35.6943 404.055 48.5465 404.388 55.0465C404.402 55.3196 407.322 57.0463 407.388 57.0465C490.888 57.3785 574.389 56.7145 657.888 57.0465C658.36 57.0484 658.879 57.5752 658.888 58.0465C659.692 98.2532 658.388 136.981 658.388 177.047C658.388 200.178 660.326 224.797 658.388 248.047C657.93 253.542 658.888 258.676 658.888 264.047C658.888 309.88 660.379 355.756 658.388 401.547C658.368 402.017 657.86 402.539 657.388 402.547C635.724 402.875 614.055 402.454 592.388 402.547C537.089 402.783 481.053 402.18 425.888 403.047C421.49 403.116 423.779 426.906 425.888 427.047C461.144 429.397 496.555 426.721 531.888 426.547C571.055 426.353 610.221 426.047 649.388 426.047C676.976 426.047 703.976 427.308 731.888 426.547C732.595 426.527 733.385 425.754 733.388 425.047C733.886 308.048 733.553 191.046 733.388 74.0465C733.371 62.0656 733.61 48.41 732.888 37.0465C732.843 36.3408 732.095 35.554 731.388 35.5465C622.618 34.3976 513.564 33.0902 405.388 35.5465Z" fill="#64482c" fill-rule="nonzero" opacity="1" stroke="none"/>
<path d="M110.888 701.047C110.388 701.547 109.396 701.839 109.388 702.547C109.06 732.045 109.233 761.553 109.888 791.047C109.904 791.753 110.683 792.489 111.388 792.547C117.036 793.004 122.722 792.547 128.388 792.547C133.981 792.547 140.62 795.757 144.388 791.047C145.546 789.599 144.388 785.466 144.388 783.547C144.388 779.047 144.079 774.536 144.388 770.047C144.631 766.531 152.201 771.191 154.388 767.547C156.915 763.335 152.396 758.039 156.388 754.047C166.016 758.86 160.206 740.881 163.888 740.547C168.868 740.094 173.898 740.235 178.888 740.547C183.226 740.818 179.888 749.2 179.888 753.547C179.888 756.962 176.839 767.62 181.388 768.047C195.313 769.352 211.543 769.008 225.388 768.547C229.068 768.424 226.055 761.213 226.388 757.547C226.682 754.317 233.183 758.765 234.388 754.547C235.113 752.011 232.373 740.278 235.388 740.047C239.376 739.74 243.413 739.605 247.388 740.047C250.984 740.446 248.845 753.753 248.888 755.047C249.042 759.664 249.888 764.68 249.888 769.547C249.888 777.88 249.273 786.236 249.888 794.547C249.958 795.487 250.947 796.492 251.888 796.547C266.531 797.391 281.239 796.779 295.888 796.047C299.731 795.854 296.814 788.394 296.888 784.547C296.988 779.378 296.92 774.195 297.388 769.047C297.431 768.577 297.917 768.068 298.388 768.047C305.381 767.729 312.415 768.653 319.388 768.047C320.327 767.965 321.129 766.953 321.388 766.047C322.455 762.312 320.206 761.274 320.888 758.547C322.427 752.392 321.853 748.488 320.888 740.047C320.808 739.344 320.094 738.595 319.388 738.547C312.571 738.082 305.714 738.864 298.888 738.547C298.417 738.525 297.966 738.012 297.888 737.547C296.115 726.907 298.537 715.174 297.388 704.547C296.574 697.019 277.743 708.434 277.388 702.047C277.074 696.389 277.074 690.704 277.388 685.047C277.414 684.576 277.918 684.073 278.388 684.047C283.879 683.733 289.407 683.59 294.888 684.047C295.593 684.105 296.326 684.842 296.388 685.547C296.888 691.213 292.208 702.231 297.888 702.547C309.608 703.198 325.476 703.047 337.888 703.047C351.07 703.047 339.844 684.123 344.388 684.047C363.885 683.719 383.391 684.374 402.888 684.047C403.36 684.039 403.875 683.518 403.888 683.047C404.212 671.885 403.565 660.709 403.888 649.547C403.997 645.805 413.565 651.359 413.888 647.047C414.349 640.897 414.487 634.684 413.888 628.547C413.461 624.172 406.366 627.442 404.388 627.047C397.849 625.739 391.055 626.713 384.388 626.547C379.652 626.428 387.172 612.292 382.388 612.047C376.23 611.731 370.026 611.448 363.888 612.047C358.703 612.552 361.888 622.337 361.888 627.547C361.888 635.213 362.221 642.887 361.888 650.547C361.868 651.017 361.359 651.521 360.888 651.547C355.063 651.861 349.213 651.861 343.388 651.547C342.917 651.521 342.409 651.017 342.388 650.547C342.07 643.22 342.855 635.865 342.388 628.547C342.343 627.841 341.594 627.094 340.888 627.047C333.904 626.581 326.873 627.512 319.888 627.047C316.689 626.833 318.388 620.752 318.388 617.547C318.388 616.312 318.327 615.67 318.888 614.547C314.764 610.422 304.021 612.657 300.388 612.547C293.254 612.33 301.9 626.29 296.888 626.547C290.73 626.862 284.538 627.008 278.388 626.547C272.951 626.139 280.814 612.457 275.888 612.047C272.234 611.742 268.529 611.61 264.888 612.047C259.515 612.691 267.21 625.676 262.388 626.047C258.4 626.353 254.376 626.353 250.388 626.047C245.602 625.678 253.291 613.272 248.388 612.047C246.603 611.6 229.15 611.949 228.888 614.047C228.411 617.865 231.697 625.002 227.888 625.547C226.152 625.795 212.869 626.95 212.388 624.547C211.669 620.951 212.084 617.201 212.388 613.547C212.661 610.272 229.845 614.529 230.388 610.547C231.044 605.74 231.224 596.871 228.388 596.547C222.209 595.84 204.439 595.913 197.888 596.547C193.125 597.008 199.01 610.831 195.888 611.047C190.897 611.391 185.178 608.973 180.888 611.547C176.325 614.285 183.61 625.899 178.888 626.047C145.884 627.078 112.988 625.864 79.8882 626.547C79.4169 626.556 79.0025 627.089 78.8882 627.547C78.5648 628.84 78.8882 630.213 78.8882 631.547C78.8882 647.547 78.7358 663.547 78.8882 679.547C78.8967 680.445 78.6667 685.547 81.3882 685.547C89.3899 685.547 97.3864 685.047 105.388 685.047C113.39 685.047 121.388 685.387 129.388 685.547C133.72 685.633 139.534 685.526 142.888 685.047C150.981 683.89 140.424 668.065 146.388 667.547C154.953 666.802 168.341 667.436 176.888 668.047C182.394 668.44 173.4 684.752 179.388 685.047C189.043 685.521 198.723 684.885 208.388 685.047C208.846 685.054 210.344 686.172 210.388 686.547C210.798 690.027 209.888 693.543 209.888 697.047C209.888 698.722 211.062 701.99 209.388 702.047C199.894 702.368 190.368 701.425 180.888 702.047C177.897 702.243 179.769 705.106 177.888 706.047C176.569 706.706 165.581 706.285 164.388 706.047C157.781 704.725 149.524 701.761 142.888 701.547C132.226 701.203 120.43 705.817 110.888 701.047Z" fill="#fcfcfc" fill-rule="nonzero" opacity="1" stroke="none"/>
<path d="M607.888 174.047C609.888 172.047 609.075 172.343 613.888 173.547C614.346 173.661 614.858 174.076 614.888 174.547C615.475 183.649 614.518 191.669 614.888 200.547C615.548 216.374 614.734 231.902 615.388 248.047C615.496 250.716 620.716 248.547 623.388 248.547C628.456 248.547 632.681 250.271 635.888 254.547C637.841 257.15 636.069 263.117 635.888 266.547C635.581 272.374 635.86 278.23 635.388 284.047C635.35 284.516 634.859 285.02 634.388 285.047C628.897 285.36 623.386 285.199 617.888 285.047C615.975 284.993 616.902 283.912 615.388 285.047C608.277 290.38 616.935 303.406 614.888 309.547C612.733 316.012 597.99 306.975 595.388 313.047C593.942 316.42 595.888 320.376 595.888 324.047C595.888 327.78 594.153 334.164 595.388 337.047C597.858 342.809 623.68 334.873 629.888 340.047C634.113 343.567 633.885 364.214 631.888 364.547C630.244 364.821 628.538 364.311 626.888 364.547C621.998 365.245 627.397 370.792 623.888 372.547C620.754 374.114 616.892 373.047 613.388 373.047C607.579 373.047 612.944 366.68 609.388 364.547C606.15 362.604 601.181 365.016 597.888 362.547C593.399 359.179 600.853 347.295 595.888 347.047C589.563 346.73 583.214 346.73 576.888 347.047C574.753 347.153 576.99 350.126 574.888 350.547C573.207 350.883 564.046 350.051 563.888 350.047C555.557 349.786 547.22 349.763 538.888 349.547C527.762 349.258 513.561 349.758 502.888 349.047C497.821 348.709 506.088 336.698 500.388 336.047C494.924 335.422 489.388 336.047 483.888 336.047C478.055 336.047 472.203 335.587 466.388 336.047C465.683 336.102 464.923 336.84 464.888 337.547C464.413 347.202 464.566 356.885 464.888 366.547C464.904 367.018 465.417 367.538 465.888 367.547C483.552 367.874 501.225 367.219 518.888 367.547C519.36 367.555 519.87 368.075 519.888 368.547C520.209 377.04 519.763 385.547 519.888 394.047C519.937 397.396 519.829 400.868 520.888 404.047C527.055 404.047 533.23 404.362 539.388 404.047C543.885 403.816 539.888 395.05 539.888 390.547C539.888 384.204 538.883 377.563 540.888 371.547C548.555 371.547 556.228 371.227 563.888 371.547C565.916 371.631 563.84 374.664 566.388 375.047C569.19 375.467 572.07 374.75 574.888 375.047C578.442 375.421 573.307 383.861 577.388 384.047C587.877 384.523 598.388 384.047 608.888 384.047C625.74 384.047 643.27 385.894 657.888 380.047C658.545 379.784 659.379 379.254 659.388 378.547C659.882 340.55 659.229 302.546 659.388 264.547C659.679 195.371 661.235 126.891 659.888 57.5465C659.874 56.8396 659.095 56.0521 658.388 56.0465C574.557 55.3838 490.722 55.5465 406.888 55.5465C406.516 55.5465 406.186 55.8229 405.888 56.0465C404.578 57.0289 404.888 57.6141 404.888 59.0465C404.888 96.8799 404.558 134.715 404.888 172.547C404.892 173.018 405.417 173.534 405.888 173.547C418.551 173.871 431.226 173.871 443.888 173.547C444.359 173.534 444.883 173.018 444.888 172.547C445.051 159.046 444.226 145.547 444.388 132.047C444.397 131.31 446.113 126.349 442.888 126.047C438.076 125.595 433.211 126.358 428.388 126.047C427.918 126.016 427.563 125.484 427.388 125.047C425.654 120.711 427.715 115.713 427.888 111.047C427.972 108.79 426.16 104.456 428.888 103.547C433.303 102.075 442.038 104.547 446.888 104.547C450.725 104.547 454.551 105.047 458.388 105.047C459.269 105.047 464.294 103.691 464.388 106.047C464.708 114.04 463.918 122.06 464.388 130.047C464.43 130.752 465.183 131.498 465.888 131.547C493.658 133.44 521.554 132.047 549.388 132.047C564.725 132.047 580.06 131.552 595.388 131.047C595.859 131.031 596.368 130.517 596.388 130.047C596.707 122.72 596.252 115.379 596.388 108.047C596.432 105.661 595.503 101.114 597.888 101.047C609.384 100.723 620.893 100.723 632.388 101.047C632.859 101.06 633.364 101.576 633.388 102.047C633.704 108.205 633.987 114.409 633.388 120.547C633.297 121.485 631.665 121.645 631.388 122.547C631.241 123.023 632.597 130.443 630.888 130.547C625.731 130.859 620.545 130.234 615.388 130.547C614.918 130.575 614.418 131.076 614.388 131.547C614.076 136.537 614.7 141.556 614.388 146.547C614.359 147.017 613.859 147.52 613.388 147.547C607.897 147.86 602.369 147.09 596.888 147.547C596.184 147.605 595.43 148.341 595.388 149.047C594.918 157.033 595.231 165.048 595.388 173.047C595.752 191.596 612.903 184.075 607.888 174.047Z" fill="#fcfcfc" fill-rule="nonzero" opacity="1" stroke="none"/>
<path d="M320.388 311.547C312.555 311.547 304.715 311.227 296.888 311.547C290.792 311.795 300.927 331.414 294.888 331.547C280.058 331.872 265.218 331.221 250.388 331.547C248.032 331.598 249.388 336.19 249.388 338.547C249.388 342.383 249.345 346.237 248.888 350.047C248.832 350.515 248.359 351.022 247.888 351.047C241.73 351.362 235.526 350.448 229.388 351.047C228.45 351.138 227.446 352.105 227.388 353.047C226.93 360.534 228.048 368.046 227.888 375.547C227.861 376.815 213.222 376.463 212.388 376.047C210.675 377.76 210.888 377.852 210.888 380.047C210.888 391.88 210.728 403.714 210.888 415.547C210.909 417.11 210.999 422.477 212.888 422.547C224.052 422.96 236.396 418.55 246.388 423.547C249.15 424.928 247.028 432.751 247.888 435.547C248.627 437.948 276.044 437.328 276.888 437.047C276.888 433.454 274.256 422.421 278.888 422.547C284.555 422.7 290.239 422.576 295.888 423.047C296.358 423.086 296.774 423.589 296.888 424.047C298.59 430.855 296.025 438.731 297.388 445.547C297.941 448.312 306.692 448.4 308.888 450.047C318.801 457.481 316.011 454.756 318.388 466.047C319.951 473.472 339.225 461.456 339.388 468.547C339.714 482.709 339.063 496.884 339.388 511.047C339.399 511.518 339.917 512.033 340.388 512.047C345.888 512.204 351.406 512.016 356.888 511.547C360.887 511.204 357.555 503.547 357.888 499.547C358.084 497.198 362.577 498.084 364.888 498.547C369.003 499.37 367.026 506.899 366.388 511.047C365.706 515.482 358.861 520.019 364.388 525.547C369.608 522.937 376.08 525.609 381.888 525.047C382.357 525.001 382.877 524.518 382.888 524.047C383.213 510.884 382.563 497.709 382.888 484.547C382.9 484.075 383.419 483.596 383.888 483.547C390.189 482.883 396.606 483.866 402.888 483.047C403.356 482.986 403.874 482.518 403.888 482.047C404.211 471.385 404.365 460.703 403.888 450.047C403.742 446.772 395.719 448.886 386.888 448.547C383.375 448.411 385.555 441.547 385.888 438.047C385.933 437.577 386.418 437.075 386.888 437.047C392.045 436.734 397.242 437.501 402.388 437.047C407.308 436.612 401.119 424.26 405.388 424.047C411.714 423.73 418.063 424.363 424.388 424.047C424.859 424.023 425.365 423.517 425.388 423.047C425.704 416.721 425.704 410.372 425.388 404.047C425.067 397.621 405.208 407.774 404.888 401.547C404.572 395.388 404.572 389.205 404.888 383.047C405.14 378.132 420.64 384.212 423.888 382.047C427.357 379.734 425.773 378.652 425.888 374.047C426.005 369.378 425.924 364.693 426.388 360.047C426.503 358.897 429.1 358.835 429.888 358.047C425.521 353.68 429.35 345.705 428.888 339.547C428.773 338.014 425.995 337.579 425.888 336.047C425.413 329.23 425.571 322.372 425.888 315.547C426.088 311.248 436.978 318.011 437.888 312.547C439.395 303.503 437.215 294.213 437.388 285.047C437.464 281.033 445.388 284.38 449.388 284.047C452.307 283.803 451.661 270.621 449.388 270.547C434.729 270.063 420.051 270.221 405.388 270.547C404.917 270.557 404.394 271.075 404.388 271.547C403.961 306.378 405.974 341.275 403.888 376.047C403.86 376.517 403.359 377.022 402.888 377.047C396.896 377.362 390.88 377.362 384.888 377.047C384.417 377.022 383.933 376.516 383.888 376.047C383.149 368.287 385.232 360.137 384.388 352.547C384.336 352.078 383.859 351.567 383.388 351.547C376.229 351.228 369.055 351.489 361.888 351.547C348.388 351.655 334.888 352.209 321.388 352.047C320.917 352.041 320.414 351.517 320.388 351.047C320.074 345.389 320.231 339.711 320.388 334.047C320.561 327.836 322.689 318.449 320.388 311.547Z" fill="#fcfcfc" fill-rule="nonzero" opacity="1" stroke="none"/>
<path d="M359.388 865.047C316.103 863.001 272.717 864.888 229.388 865.547C228.681 865.557 227.924 866.34 227.888 867.047C227.414 876.368 227.888 885.713 227.888 895.047C227.888 913.047 228.221 931.05 227.888 949.047C227.879 949.518 227.359 950.016 226.888 950.047C222.065 950.358 217.219 949.891 212.388 950.047C207.554 950.202 202.7 950.065 197.888 950.547C196.921 950.643 195.481 951.079 195.388 952.047C194.607 960.176 194.918 968.393 195.388 976.547C195.429 977.252 196.181 978.041 196.888 978.047C265.886 978.543 334.89 978.543 403.888 978.047C409.387 978.007 402.081 963.378 406.888 963.047C415.649 962.442 425.353 964.952 425.388 960.547C425.552 940.214 425.54 919.879 425.388 899.547C425.314 889.622 425.48 874.884 424.888 867.047C424.835 866.341 424.095 865.575 423.388 865.547C411.565 865.067 399.72 865.709 387.888 865.547C379.526 865.432 367.539 865.432 359.388 865.047Z" fill="#fcfcfc" fill-rule="nonzero" opacity="1" stroke="none"/>
<path d="M317.888 215.547C323.043 210.391 315.611 194.064 319.888 194.047C361.388 193.881 402.888 194.381 444.388 194.547C444.722 194.548 445.079 194.67 445.388 194.547C445.946 194.323 446.287 193.554 446.888 193.547C471.553 193.22 496.222 193.383 520.888 193.547C521.415 193.55 521.888 193.88 522.388 194.047C522.388 210.02 522.388 221.649 522.388 237.547C522.388 240.837 520.922 245.615 522.388 248.547C522.055 248.88 521.86 249.539 521.388 249.547C501.724 249.874 482.054 249.71 462.388 249.547C462.016 249.543 461.75 249.137 461.388 249.047C459.138 248.484 456.241 249.047 453.888 249.047C417.388 249.047 380.887 248.716 344.388 249.047C343.917 249.051 343.42 249.576 343.388 250.047C343.078 254.703 343.388 259.38 343.388 264.047C343.388 270.534 343.866 278.833 343.388 285.047C343.352 285.517 342.859 286.028 342.388 286.047C314.764 287.13 287.171 286.047 259.888 286.047C257.922 286.047 257.657 289.104 255.888 289.547C253.153 290.23 254.716 286.604 252.888 286.547C247.888 286.39 242.869 286.58 237.888 287.047C237.419 287.091 236.908 287.576 236.888 288.047C236.569 295.54 236.569 303.053 236.888 310.547C237.066 314.723 245.208 311.547 249.388 311.547C256.555 311.547 263.723 311.397 270.888 311.547C293.167 312.011 316.688 313.047 339.388 313.047C343.555 313.047 347.724 312.892 351.888 313.047C352.575 313.072 353.201 313.547 353.888 313.547C356.93 313.547 362.813 315.087 362.888 312.047C363.213 298.884 362.563 285.709 362.888 272.547C362.9 272.075 363.417 271.571 363.888 271.547C370.047 271.231 376.23 271.231 382.388 271.547C382.859 271.571 383.362 272.076 383.388 272.547C384.856 298.96 381.416 325.554 382.888 352.047C382.914 352.517 383.417 353.025 383.888 353.047C390.714 353.364 397.562 353.364 404.388 353.047C425.622 352.059 385.542 272.02 406.388 271.547C444.571 270.679 482.691 272.088 520.888 271.047C526.287 270.899 517.43 254.317 523.388 254.047C530.217 253.736 537.055 254.705 543.888 254.547C545.137 254.517 544.879 253.165 544.888 252.547C545.05 242.046 545.227 231.547 545.388 221.047C545.532 211.714 545.721 202.374 545.388 193.047C545.371 192.575 544.859 192.068 544.388 192.047C537.395 191.729 530.386 192.202 523.388 192.047C522.861 192.035 522.388 191.713 521.888 191.547C521.888 187.713 521.888 183.88 521.888 180.047C521.888 177.69 523.244 173.114 520.888 173.047C509.559 172.723 498.211 173.525 486.888 173.047C486.182 173.017 485.574 172.229 485.388 171.547C483.721 165.434 485.133 158.837 485.888 152.547C485.972 151.844 486.681 151.063 487.388 151.047C508.049 150.558 528.727 151.535 549.388 151.047C550.095 151.03 550.831 150.251 550.888 149.547C551.346 143.898 551.346 138.195 550.888 132.547C550.831 131.842 550.095 131.063 549.388 131.047C528.561 130.558 507.719 130.718 486.888 131.047C481.16 131.137 490.713 149.238 484.388 149.547C478.06 149.855 471.722 148.888 465.388 149.047C464.917 149.058 464.409 149.576 464.388 150.047C464.07 157.206 464.706 164.387 464.388 171.547C464.367 172.017 463.859 172.522 463.388 172.547C444.58 173.511 425.715 173.042 406.888 172.547C406.417 172.534 405.892 172.018 405.888 171.547C405.558 134.048 406.703 96.5377 405.888 59.0465C405.781 54.0963 389.721 56.0387 384.388 56.5465C379.151 57.0453 382.888 67.9959 382.888 71.5465C382.888 91.3799 383.047 111.214 382.888 131.047C382.779 144.675 382.963 158.184 382.388 172.547C382.369 173.018 381.86 173.539 381.388 173.547C361.057 173.874 340.711 172.901 320.388 173.547C315.694 173.696 320.873 193.511 317.888 193.547C304.055 193.709 290.222 192.884 276.388 193.047C275.917 193.052 275.411 193.576 275.388 194.047C275.071 200.706 275.071 207.387 275.388 214.047C275.411 214.517 275.917 215.035 276.388 215.047C289.884 215.372 303.389 214.884 316.888 215.047C317.261 215.051 317.555 215.38 317.888 215.547Z" fill="#64482c" fill-rule="nonzero" opacity="1" stroke="none"/>
<path d="M680.388 56.0465C679.682 56.0802 678.922 56.8403 678.888 57.5465C678.413 67.3684 678.737 77.2144 678.888 87.0465C679.042 97.0397 679.388 108.02 679.388 118.047C679.388 121.706 678.888 125.237 678.888 130.047C678.888 171.88 679.139 213.714 679.388 255.547C679.501 274.549 680.014 290.882 679.888 308.547C679.736 329.88 679.709 351.215 679.388 372.547C679.244 382.13 678.115 392.883 678.888 402.547C678.945 403.251 679.682 404.013 680.388 404.047C690.377 404.522 700.4 404.522 710.388 404.047C711.094 404.013 711.815 403.25 711.888 402.547C713.755 384.498 711.888 365.911 711.888 348.047C711.888 262.213 711.554 176.38 711.388 90.5465C711.366 79.1163 712.639 70.3071 711.888 57.5465C711.847 56.8406 711.094 56.0802 710.388 56.0465C700.4 55.5709 690.377 55.5709 680.388 56.0465Z" fill="#b8733d" fill-rule="nonzero" opacity="1" stroke="none"/>
<path d="M195.888 976.047C194.888 977.047 194.888 977.047 193.888 978.047C197.832 981.99 190.892 997.515 196.388 997.547C253.887 997.878 311.388 997.45 368.888 997.547C437.721 997.662 506.575 999.195 575.388 997.547C576.095 997.53 576.829 996.751 576.888 996.047C577.345 990.566 576.574 985.038 576.888 979.547C576.915 979.076 577.417 978.572 577.888 978.547C583.713 978.232 589.563 978.861 595.388 978.547C595.754 978.527 596.887 976.985 596.888 976.547C597.054 929.38 597.383 882.211 596.888 835.047C596.881 834.339 596.078 833.7 595.388 833.547C590.457 832.451 576.902 832.432 576.888 834.047C576.558 871.712 577.052 909.38 576.888 947.047C576.856 954.371 576.888 961.863 576.888 969.047C576.888 971.924 578.265 977.519 575.388 977.547C449.38 978.752 323.166 977.654 196.888 977.047C196.417 977.044 196.222 976.38 195.888 976.047Z" fill="#0067c9" fill-rule="nonzero" opacity="1" stroke="none"/>
<path d="M444.888 215.547C403.221 215.542 361.55 215.388 319.888 216.047C319.181 216.058 318.433 216.841 318.388 217.547C317.921 224.865 318.707 232.22 318.388 239.547C318.101 246.147 296.676 235.574 296.388 242.047C296.07 249.206 295.922 256.395 296.388 263.547C296.434 264.252 297.181 265.024 297.888 265.047C313.047 265.53 328.225 265.373 343.388 265.047C348.214 264.943 340.589 250.09 345.388 250.047C381.553 249.716 417.722 250.047 453.888 250.047C456.71 250.047 459.77 250.525 462.388 250.547C482.221 250.71 502.058 250.874 521.888 250.547C522.36 250.539 522.605 249.924 522.888 249.547C524.503 247.393 522.888 241.032 522.888 238.047C522.888 231.211 523.388 224.382 523.388 217.547C523.388 217.121 522.253 215.55 521.888 215.547C505.721 215.383 489.555 215.883 473.388 216.047C463.887 216.143 454.39 215.548 444.888 215.547Z" fill="#799d9f" fill-rule="nonzero" opacity="1" stroke="none"/>
<path d="M616.888 247.547C611.463 248.513 616.222 258.547 615.888 264.047C615.86 264.517 615.359 265.02 614.888 265.047C609.397 265.36 603.869 264.59 598.388 265.047C596.599 265.196 596.913 266.587 596.888 267.547C596.73 273.547 596.861 279.563 596.388 285.547C596.187 288.092 574.618 284.443 574.388 288.047C573.921 295.365 574.707 302.72 574.388 310.047C574.368 310.517 573.859 311.025 573.388 311.047C565.73 311.403 557.507 308.199 550.388 311.047C545.936 312.827 552.322 330.515 548.388 330.547C528.221 330.71 508.05 330.538 487.888 330.047C483.876 329.949 487.049 322.057 486.888 318.047C486.824 316.45 487.414 311.467 484.888 311.047C483.423 310.802 465.958 312.487 465.888 310.547C465.555 301.218 466.163 291.849 465.388 282.547C465.053 278.529 467.91 270.824 463.888 270.547C459.399 270.237 454.878 270.237 450.388 270.547C448.453 270.68 450.486 275.093 449.388 282.047C448.653 286.703 436.81 279.355 436.388 285.047C435.711 294.19 438.185 303.47 436.888 312.547C436.274 316.844 425.071 310.341 424.888 314.547C424.57 321.873 424.421 329.228 424.888 336.547C425.076 339.496 434.264 338.047 442.888 338.047C462.175 338.047 481.062 335.875 500.388 337.047C504.449 337.293 497.198 349.708 502.388 350.047C522.628 351.367 543.036 349.911 563.388 350.547C567.566 350.677 571.721 351.867 575.888 351.547C578.304 351.361 575.472 347.174 577.888 347.047C583.88 346.731 589.896 347.362 595.888 347.047C598.737 346.897 597.046 341.395 596.888 338.547C596.528 332.068 594.661 319.591 596.388 313.547C597.837 308.474 612.955 315.913 615.388 311.047C619.04 303.742 615.211 294.711 615.388 286.547C615.499 281.454 635.84 291.493 636.388 284.547C636.847 278.731 636.235 272.878 636.388 267.047C636.849 249.534 634.592 244.394 616.888 247.547Z" fill="#96d3f8" fill-rule="nonzero" opacity="1" stroke="none"/>
<path d="M247.388 495.047C251.763 499.421 248.563 507.368 248.888 513.547C249.388 523.039 249.888 532.541 249.888 542.047C249.888 545.085 249.937 549.194 250.888 552.047C258.722 552.047 266.569 552.516 274.388 552.047C280.047 551.707 272.986 539.449 276.888 535.547C277.222 535.713 277.516 536.042 277.888 536.047C291.554 536.209 305.225 536.372 318.888 536.047C319.359 536.035 319.872 535.518 319.888 535.047C320.21 525.719 320.362 516.368 319.888 507.047C319.578 500.938 302.718 510.15 302.388 504.547C302.075 499.222 302.075 493.871 302.388 488.547C302.715 482.984 317.092 492.169 319.388 486.047C321.577 480.209 315.054 472.38 320.388 467.047C318.371 465.029 319.857 461.361 319.388 458.547C318.903 455.638 315.473 454.132 313.388 452.047C309.117 447.775 301.936 449.094 298.388 445.547C293.668 450.266 297.722 458.88 297.388 465.547C297.365 466.017 296.859 466.523 296.388 466.547C290.063 466.863 283.714 466.863 277.388 466.547C276.917 466.523 276.404 466.018 276.388 465.547C276.067 456.219 276.71 446.874 276.388 437.547C276.372 437.075 275.858 436.586 275.388 436.547C260.797 435.331 244.327 434.407 229.888 435.547C229.418 435.584 228.966 436.082 228.888 436.547C228.385 439.567 228.888 443.949 228.888 447.047C228.888 452.216 229.388 457.377 229.388 462.547C229.388 463.487 227.741 466.752 230.388 467.047C234.364 467.488 238.388 467.047 242.388 467.047C243.722 467.047 245.095 467.37 246.388 467.047C250.384 466.048 249.756 478.984 249.388 482.047C248.866 486.4 250.488 491.946 247.388 495.047Z" fill="#fcfcfc" fill-rule="nonzero" opacity="1" stroke="none"/>
<path d="M623.888 627.547C622.59 627.646 614.622 626.841 614.388 631.047C613.445 648.02 614.715 665.05 614.388 682.047C614.379 682.518 613.859 683.037 613.388 683.047C578.927 683.75 537.773 682.275 503.888 682.547C503.417 682.55 502.99 683.086 502.888 683.547C501.804 688.424 500.794 702.983 503.888 703.047C527.716 703.536 551.557 702.718 575.388 703.047C575.86 703.053 576.38 703.575 576.388 704.047C576.716 723.544 576.388 743.047 576.388 762.547C576.388 770.111 575.659 778.174 576.888 785.547C578.971 798.041 576.214 810.898 576.888 823.547C576.926 824.253 577.717 824.823 578.388 825.047C581.51 826.087 581.558 820.331 583.388 819.547C587.237 817.897 592.807 819.407 596.888 818.047C596.888 779.88 596.558 741.712 596.888 703.547C596.892 703.075 597.417 702.561 597.888 702.547C608.05 702.224 618.223 702.69 628.388 702.547C630.655 702.515 634.822 702.812 634.888 700.547C635.383 683.553 634.388 666.547 634.388 649.547C634.388 644.725 636.928 631.086 623.888 627.547Z" fill="#0067c9" fill-rule="nonzero" opacity="1" stroke="none"/>
<path d="M319.888 193.047C311.204 193.703 321.519 214.935 316.888 215.047C303.392 215.372 289.88 214.565 276.388 215.047C275.682 215.072 274.902 215.84 274.888 216.547C274.565 233.378 275.225 250.213 275.388 267.047C275.42 270.329 272.151 286.832 277.388 287.547C280.365 287.952 283.387 287.197 286.388 287.047C287.606 286.986 297.27 289.001 297.388 286.047C297.555 281.88 293.719 273.637 297.888 273.547C312.885 273.221 327.896 274.03 342.888 273.547C343.595 273.524 344.265 272.743 344.388 272.047C344.855 269.4 346.075 264.105 343.388 264.047C328.392 263.721 313.385 264.373 298.388 264.047C297.917 264.036 297.41 263.517 297.388 263.047C297.071 256.221 297.071 249.372 297.388 242.547C297.696 235.93 319.107 247.15 319.388 240.547C319.707 233.053 319.069 225.54 319.388 218.047C319.408 217.576 319.917 217.05 320.388 217.047C361.72 216.716 403.058 217.541 444.388 217.047C445.807 217.03 446.106 196.137 445.888 195.047C445.75 194.353 445.095 193.558 444.388 193.547C402.893 192.888 361.27 189.917 319.888 193.047Z" fill="#fbecb2" fill-rule="nonzero" opacity="1" stroke="none"/>
<path d="M521.888 180.047C518.778 183.157 523.856 192.493 519.888 192.547C495.557 192.875 471.219 192.218 446.888 192.547C443.588 192.591 444.157 213.354 445.388 217.047C454.388 217.047 463.394 217.368 472.388 217.047C474.311 216.978 473.414 211.377 473.388 210.547C473.232 205.546 472.732 200.547 472.888 195.547C472.903 195.075 473.417 194.556 473.888 194.547C489.385 194.22 504.892 194.22 520.388 194.547C520.859 194.556 521.366 195.076 521.388 195.547C521.705 202.206 521.071 208.887 521.388 215.547C521.411 216.017 522.055 216.213 522.388 216.547C527.697 211.238 523.055 201.547 523.388 194.047C523.409 193.576 523.917 193.07 524.388 193.047C530.714 192.73 537.063 192.73 543.388 193.047C543.859 193.07 544.371 193.575 544.388 194.047C544.709 202.707 544.067 211.386 544.388 220.047C544.477 222.436 556.933 218.581 557.388 224.047C558.163 233.348 557.71 242.719 557.388 252.047C557.252 255.982 546.768 251.586 543.888 252.547C543.888 256.475 546.678 259.874 546.888 263.547C547.202 269.038 547.202 274.555 546.888 280.047C546.861 280.517 546.359 281.024 545.888 281.047C539.396 281.363 532.88 281.363 526.388 281.047C525.917 281.024 525.722 280.38 525.388 280.047C524.431 280.525 522.412 280.637 522.388 282.047C522.227 291.378 522.23 300.715 522.388 310.047C522.402 310.888 522.844 312.027 523.888 312.047C532.387 312.207 540.888 312.047 549.388 312.047C550.222 312.047 551.114 312.356 551.888 312.047C552.326 311.871 552.879 311.518 552.888 311.047C553.048 303.046 552.228 295.047 552.388 287.047C552.472 282.867 560.708 286.047 564.888 286.047C566.777 286.047 575.951 287.783 576.388 284.547C577.147 278.931 576.074 273.204 576.388 267.547C576.414 267.076 576.918 266.579 577.388 266.547C581.878 266.237 586.39 266.422 590.888 266.547C595.645 266.679 594.53 266.188 596.888 268.547C598.141 267.294 597.636 266.799 598.888 265.547C598.555 265.213 597.9 265.018 597.888 264.547C597.563 251.217 598.213 237.876 597.888 224.547C597.877 224.075 597.359 223.558 596.888 223.547C590.555 223.388 584.222 224.205 577.888 224.047C573.185 223.929 580.694 210.515 575.388 210.047C568.581 209.446 561.589 211.387 554.888 210.047C549.367 208.942 545.767 193.894 546.388 189.547C546.634 187.828 550 181.831 545.888 180.547C538.118 178.118 529.818 184.012 521.888 180.047Z" fill="#dfc487" fill-rule="nonzero" opacity="1" stroke="none"/>
<path d="M405.388 423.047C399.721 424.324 402.978 437.713 403.388 443.047C404.36 455.677 403.284 468.385 402.888 481.047C402.795 484.04 381.968 480.295 381.888 483.547C381.563 496.709 382.213 509.884 381.888 523.047C381.851 524.551 364.375 525.492 363.888 523.547C362.179 516.709 373.189 499.852 364.888 497.547C353.977 494.516 357.534 502.116 356.888 509.547C356.847 510.016 356.359 510.517 355.888 510.547C350.898 510.858 345.868 510.094 340.888 510.547C340.184 510.611 339.414 511.34 339.388 512.047C338.907 525.204 338.907 538.389 339.388 551.547C339.414 552.253 340.182 553.022 340.888 553.047C354.713 553.529 368.559 553.372 382.388 553.047C385.489 552.974 380.414 533.841 384.388 533.047C389.164 532.091 403.288 533.74 403.388 531.547C403.873 520.891 403.065 510.208 403.388 499.547C403.593 492.773 425.232 504.487 425.888 497.047C426.342 491.9 425.973 486.713 425.888 481.547C425.806 476.544 425.544 471.547 425.388 466.547C425.04 455.395 425.239 444.081 425.888 433.047C425.954 431.935 426.028 423.129 424.388 423.047C418.063 422.73 411.567 421.654 405.388 423.047Z" fill="#96d3f8" fill-rule="nonzero" opacity="1" stroke="none"/>
<path d="M210.888 379.047C206.343 379.244 197.582 376.502 197.388 381.047C197.069 388.54 197.707 396.053 197.388 403.547C197.368 404.018 196.859 404.52 196.388 404.547C190.73 404.861 185.046 404.232 179.388 404.547C176.126 404.728 178.842 425.053 178.388 430.047C177.923 435.166 164.284 426.871 163.388 432.547C161.621 443.741 162.748 455.231 163.388 466.547C163.702 472.095 177.967 464.914 178.388 469.547C179.721 484.211 177.879 499.294 178.388 514.047C178.521 517.901 195.061 509.892 197.888 515.547C200.231 520.233 194.015 526.882 197.888 532.047C200.877 536.031 211.04 529.525 211.388 534.047C212.112 543.455 209.607 551.848 212.888 552.047C218.045 552.359 223.242 552.501 228.388 552.047C234.715 551.488 225.109 534.432 230.888 534.047C235.545 533.736 240.232 534.357 244.888 534.047C246.085 533.967 248.267 515.994 244.888 514.547C242.573 513.554 238.653 514.093 236.388 514.547C226.483 516.528 228.983 509.491 228.388 525.547C228.308 527.718 228.314 529.916 227.888 532.047C227.796 532.509 227.359 533.015 226.888 533.047C222.232 533.357 217.545 533.357 212.888 533.047C212.418 533.015 212.222 532.38 211.888 532.047C214.101 527.621 212.388 522.41 212.388 517.547C212.388 502.547 212.388 487.547 212.388 472.547C212.388 471.846 212.894 466.632 211.388 466.547C202.9 466.066 194.39 467.047 185.888 467.047C183.827 467.047 179.997 467.605 179.888 465.547C179.573 459.555 179.987 453.546 179.888 447.547C179.814 443.044 175.894 434.327 180.388 434.047C185.378 433.735 190.398 434.358 195.388 434.047C198.69 433.84 193.642 422.35 197.888 422.047C202.555 421.713 210.873 425.614 211.888 421.047C214.853 407.705 212.078 393.712 210.888 379.047Z" fill="#0c79eb" fill-rule="nonzero" opacity="1" stroke="none"/>
<path d="M298.388 611.547C302.51 607.425 300.143 598.061 300.388 592.047C300.647 585.716 300.414 579.364 300.888 573.047C301.213 568.713 309.542 572.047 313.888 572.047C314.415 572.047 317.25 572.593 317.388 572.547C320.873 571.385 316.992 564.446 320.388 564.047C326.349 563.345 332.436 563.77 338.388 564.547C341.41 564.941 337.407 570.978 341.388 571.547C354.917 573.479 368.722 571.547 382.388 571.547C382.915 571.547 383.388 571.213 383.888 571.047C383.888 570.286 384.256 552.091 382.388 552.047C368.725 551.721 355.051 552.372 341.388 552.047C340.917 552.035 340.4 551.518 340.388 551.047C340.055 537.717 340.388 524.38 340.388 511.047C340.388 496.713 340.714 482.376 340.388 468.047C340.313 464.731 318.647 465.285 318.388 468.047C316.322 490.084 319.649 512.983 318.888 535.047C318.668 541.443 299.588 530.247 297.888 537.047C296.886 541.054 298.022 548.606 297.888 551.547C297.304 564.397 296.936 582.521 297.388 596.547C297.55 601.555 294.845 608.003 298.388 611.547Z" fill="#0c79eb" fill-rule="nonzero" opacity="1" stroke="none"/>
<path d="M429.388 357.547C428.52 357.72 425.554 357.833 425.388 359.547C424.939 364.192 425.502 368.881 425.388 373.547C425.335 375.719 425.314 377.916 424.888 380.047C424.51 381.936 421.935 380.123 421.888 382.047C421.73 388.547 422.388 395.044 422.388 401.547C422.388 401.919 422.055 402.213 421.888 402.547C423.51 404.168 424.032 404.056 425.888 404.047C457.221 403.882 488.559 404.539 519.888 404.047C523.094 403.996 521.434 397.752 521.388 394.547C521.26 385.546 521.37 376.535 520.888 367.547C520.863 367.076 520.36 366.555 519.888 366.547C501.724 366.219 483.554 366.395 465.388 366.547C458.713 366.602 452.06 367.762 445.388 367.547C442.537 367.455 444.857 361.861 444.388 359.047C443.995 356.688 436.213 357.868 429.388 357.547Z" fill="#96d3f8" fill-rule="nonzero" opacity="1" stroke="none"/>
<path d="M546.888 182.547C543.177 189.969 545.241 199.9 550.888 205.547C552.194 206.853 553.088 210.296 554.888 211.047C561.042 213.611 568.235 210.631 574.888 211.047C579.654 211.344 572.087 224.659 577.388 225.047C583.705 225.509 590.072 225.509 596.388 225.047C597.093 224.995 597.855 224.253 597.888 223.547C598.364 213.558 597.566 203.541 597.888 193.547C597.903 193.075 598.555 192.88 598.888 192.547C594.806 188.464 584.407 191.948 578.388 191.547C572.201 191.134 582.659 173.356 574.888 172.547C567.76 171.804 560.548 172.865 553.388 172.547C552.917 172.526 552.414 172.017 552.388 171.547C552.074 165.889 552.388 160.213 552.388 154.547C552.388 153.3 553.238 150.416 551.388 150.047C550.871 149.943 550.415 150.547 549.888 150.547C529.054 150.547 508.222 150.047 487.388 150.047C486.861 150.047 486.34 150.275 485.888 150.547C482.161 152.783 484.888 159.2 484.888 163.547C484.888 166.414 483.422 170.603 484.888 173.047C485.131 173.451 485.417 174.033 485.888 174.047C497.217 174.37 508.559 173.723 519.888 174.047C522.534 174.122 519.552 179.845 522.388 181.547C523.218 182.044 545.157 180.815 546.888 182.547Z" fill="#fbecb2" fill-rule="nonzero" opacity="1" stroke="none"/>
<path d="M343.388 814.547C337.227 814.971 342.055 826.88 342.388 833.047C342.414 833.517 342.917 834.044 343.388 834.047C402.387 834.378 461.389 834.378 520.388 834.047C520.86 834.044 521.363 833.517 521.388 833.047C521.703 827.222 521.703 821.371 521.388 815.547C521.363 815.076 520.86 814.549 520.388 814.547C461.389 814.215 402.249 810.49 343.388 814.547Z" fill="#0c79eb" fill-rule="nonzero" opacity="1" stroke="none"/>
<path d="M360.888 702.547C357.568 703.028 359.888 717.834 359.888 722.047C359.888 727.047 360.2 732.056 359.888 737.047C359.44 744.212 336.109 731.995 335.888 739.047C335.686 745.511 336.888 751.324 336.888 757.047C336.888 758.605 335.127 767.605 337.888 768.047C352.173 770.332 366.845 767.191 381.388 768.047C384.567 768.234 382.468 774.363 382.388 777.547C382.292 781.382 381.594 785.221 381.888 789.047C381.942 789.752 382.683 790.494 383.388 790.547C389.538 791.008 395.73 790.862 401.888 790.547C404.737 790.4 402.847 784.899 402.888 782.047C403.019 773.046 403.704 764.043 403.388 755.047C403.167 748.736 385.292 758.405 384.888 752.547C384.177 742.238 384.299 731.863 384.888 721.547C385.227 715.61 403.488 724.084 403.888 719.547C404.357 714.234 404.201 708.871 403.888 703.547C403.861 703.076 403.359 702.557 402.888 702.547C388.892 702.221 374.744 700.539 360.888 702.547Z" fill="#fcfcfc" fill-rule="nonzero" opacity="1" stroke="none"/>
<path d="M403.388 682.547C383.387 682.547 363.383 682.555 343.388 683.047C342.917 683.058 342.414 683.576 342.388 684.047C342.073 689.871 342.388 695.713 342.388 701.547C342.388 704.717 339.098 715.376 344.388 715.547C349.219 715.702 354.09 716.128 358.888 715.547C364.308 714.89 357.595 703.649 361.888 703.547C396.046 702.733 430.222 702.773 464.388 703.047C468.981 703.083 461.504 715.566 467.388 716.547C470.987 717.146 481.634 717.682 481.888 714.547C482.346 708.898 481.981 703.212 481.888 697.547C481.814 693.044 481.852 688.526 481.388 684.047C481.34 683.578 480.86 683.056 480.388 683.047C454.726 682.553 429.055 682.547 403.388 682.547Z" fill="#2892f9" fill-rule="nonzero" opacity="1" stroke="none"/>
<path d="M487.888 612.547C483.245 613.586 488.459 626.467 485.388 626.547C472.892 626.871 460.379 626.066 447.888 626.547C447.182 626.574 446.752 627.44 446.388 628.047C446.045 628.618 446.388 629.38 446.388 630.047C446.388 631.626 445.704 646.463 447.888 646.547C460.545 647.033 473.222 646.403 485.888 646.547C515.942 646.888 545.866 647.413 575.888 646.547C576.359 646.533 576.861 646.017 576.888 645.547C577.202 640.055 577.479 634.515 576.888 629.047C576.787 628.109 575.83 627.083 574.888 627.047C558.234 626.406 541.552 627.373 524.888 627.047C520.177 626.954 527.616 612.678 522.888 612.547C511.226 612.223 499.273 609.998 487.888 612.547Z" fill="#fcfcfc" fill-rule="nonzero" opacity="1" stroke="none"/>
<path d="M540.388 370.547C536.63 371.506 538.469 396.682 538.888 402.547C538.939 403.252 539.681 404.027 540.388 404.047C579.706 405.159 619.064 404.42 658.388 403.547C658.859 403.536 659.369 403.018 659.388 402.547C659.707 394.887 659.707 387.207 659.388 379.547C659.369 379.076 658.857 378.599 658.388 378.547C653.006 377.948 648.822 383.028 648.388 383.047C625.454 384.022 600.722 383.76 577.888 383.047C574.405 382.938 579.496 374.303 574.888 374.047C572.226 373.899 569.539 374.341 566.888 374.047C564.52 373.783 567.411 370.724 564.388 370.547C556.402 370.077 548.14 368.568 540.388 370.547Z" fill="#96d3f8" fill-rule="nonzero" opacity="1" stroke="none"/>
<path d="M129.388 814.547C128.57 814.558 126.964 835.012 130.388 835.047C162.887 835.375 195.388 834.547 227.888 834.547C235.39 834.547 242.888 835.206 250.388 835.047C250.859 835.037 251.362 834.517 251.388 834.047C251.703 828.389 251.823 822.697 251.388 817.047C251.314 816.078 250.86 814.566 249.888 814.547C209.73 813.724 169.551 813.976 129.388 814.547Z" fill="#0c79eb" fill-rule="nonzero" opacity="1" stroke="none"/>
<path d="M89.3882 701.547C88.9173 701.569 88.3935 702.075 88.3882 702.547C88.0586 731.878 87.8966 761.217 88.3882 790.547C88.4408 793.687 105.826 792.727 108.888 792.047C109.348 791.944 109.883 791.518 109.888 791.047C110.218 761.715 110.052 732.379 109.888 703.047C109.885 702.519 109.914 701.585 109.388 701.547C102.739 701.06 96.0473 701.229 89.3882 701.547Z" fill="#0658a8" fill-rule="nonzero" opacity="1" stroke="none"/>
<path d="M465.888 283.047C465.417 283.07 464.905 283.575 464.888 284.047C464.567 293.041 464.415 302.059 464.888 311.047C465.106 315.194 483.396 309.562 485.388 313.547C487.849 318.468 485.281 324.578 485.888 330.047C485.94 330.515 486.417 331.039 486.888 331.047C507.219 331.374 527.555 331.047 547.888 331.047C551.448 331.047 550.888 326.772 550.888 324.047C550.888 320.043 550.847 316.024 550.388 312.047C550.334 311.578 549.859 311.064 549.388 311.047C540.56 310.713 531.723 310.547 522.888 310.547C510.887 310.547 498.888 311.209 486.888 311.047C486.417 311.04 485.906 310.518 485.888 310.047C485.567 301.386 486.209 292.707 485.888 284.047C485.871 283.575 485.359 283.07 484.888 283.047C478.563 282.73 472.214 282.73 465.888 283.047Z" fill="#64482c" fill-rule="nonzero" opacity="1" stroke="none"/>
<path d="M467.388 270.047C459.918 270.479 462.87 283.917 465.388 284.047C471.547 284.362 477.73 283.731 483.888 284.047C484.359 284.071 484.87 284.575 484.888 285.047C485.209 293.54 484.417 302.06 484.888 310.547C484.927 311.253 485.682 312.018 486.388 312.047C498.379 312.526 510.393 312.371 522.388 312.047C523.624 312.013 523.388 310.668 523.388 310.047C523.388 300.713 523.227 291.378 523.388 282.047C523.439 279.114 525.434 272.831 522.388 270.547C522.09 270.323 521.761 270.05 521.388 270.047C503.389 269.883 485.358 269.006 467.388 270.047Z" fill="#fbecb2" fill-rule="nonzero" opacity="1" stroke="none"/>
<path d="M321.388 331.547C321.027 331.515 319.41 333.208 319.388 334.047C319.23 340.044 319.073 346.055 319.388 352.047C319.413 352.517 319.917 353.035 320.388 353.047C341.05 353.538 361.726 352.077 382.388 352.547C383.829 352.579 383.432 355.11 383.388 355.547C382.72 362.224 382.612 370.424 382.888 377.047C382.908 377.518 383.417 378.024 383.888 378.047C390.38 378.363 396.905 378.51 403.388 378.047C404.093 377.996 404.846 377.252 404.888 376.547C405.357 368.727 405.208 360.873 404.888 353.047C404.869 352.576 404.359 352.07 403.888 352.047C397.563 351.73 391.214 352.363 384.888 352.047C384.417 352.023 383.916 351.517 383.888 351.047C383.544 345.202 387.409 336.559 382.388 333.547C382.102 333.375 381.721 333.553 381.388 333.547C373.055 333.386 364.721 333.25 356.388 333.047C344.795 332.764 332.914 332.548 321.388 331.547Z" fill="#0c79eb" fill-rule="nonzero" opacity="1" stroke="none"/>
<path d="M548.888 131.547C553.137 135.796 550.222 143.547 549.888 149.547C549.862 150.017 549.222 150.213 548.888 150.547C550.593 152.251 550.039 151.129 551.888 151.047C559.05 150.728 566.221 150.387 573.388 150.547C573.859 150.557 574.367 151.076 574.388 151.547C574.706 158.706 573.78 165.906 574.388 173.047C574.468 173.986 575.722 174.38 576.388 175.047C581.2 172.641 596.295 175.33 596.388 173.047C596.708 165.22 596.069 157.373 596.388 149.547C596.618 143.919 614.064 153.214 614.388 147.547C614.702 142.055 614.845 136.528 614.388 131.047C614.094 127.511 599.359 130.047 596.888 130.047C581.722 130.047 566.551 129.717 551.388 130.047C550.061 130.075 549.706 130.729 548.888 131.547Z" fill="#96d3f8" fill-rule="nonzero" opacity="1" stroke="none"/>
<path d="M425.388 465.547C420.614 467.55 424.302 475.87 424.388 481.047C424.474 486.215 425.045 491.38 424.888 496.547C424.686 503.214 402.584 491.882 402.388 498.547C402.065 509.542 402.065 520.551 402.388 531.547C402.402 532.018 402.917 532.521 403.388 532.547C409.213 532.861 415.085 533.142 420.888 532.547C425.36 532.088 422.331 516.696 422.388 515.547C422.679 509.735 440.668 519.348 440.888 513.047C441.37 499.222 441.051 485.379 440.888 471.547C440.874 470.303 441.708 466.346 439.388 466.047C434.757 465.449 429.694 463.74 425.388 465.547Z" fill="#0067c9" fill-rule="nonzero" opacity="1" stroke="none"/>
<path d="M296.388 704.547C296.388 710.047 296.074 715.555 296.388 721.047C296.486 722.767 304.209 721.53 305.888 721.547C322.055 721.708 338.221 721.883 354.388 722.047C356.221 722.065 358.084 722.374 359.888 722.047C362.951 721.49 361.774 715.432 359.888 713.547C356.227 717.208 349.555 714.88 344.388 714.547C339.919 714.258 346.76 703.732 342.388 701.547C340.12 700.412 326.665 701.547 323.388 701.547C315.055 701.547 306.715 701.867 298.388 701.547C292.498 701.32 302.538 683.472 294.888 683.047C289.397 682.741 283.886 682.889 278.388 683.047C277.95 683.059 276.408 684.166 276.388 684.547C276.072 690.705 276.072 696.888 276.388 703.047C276.412 703.517 276.917 704.021 277.388 704.047C283.213 704.361 289.057 703.893 294.888 704.047C295.415 704.06 295.888 704.38 296.388 704.547Z" fill="#96d3f8" fill-rule="nonzero" opacity="1" stroke="none"/>
<path d="M614.388 191.547C609.412 189.62 603.69 191.441 598.388 192.047C597.686 192.127 596.922 192.84 596.888 193.547C596.413 203.535 596.888 213.547 596.888 223.547C596.888 237.213 596.395 250.889 596.888 264.547C596.914 265.253 597.683 265.991 598.388 266.047C604.203 266.506 610.063 266.361 615.888 266.047C616.359 266.021 616.861 265.517 616.888 265.047C617.202 259.555 616.941 254.046 616.888 248.547C616.774 236.546 616.667 224.544 616.388 212.547C616.267 207.356 619.191 193.406 614.388 191.547Z" fill="#64482c" fill-rule="nonzero" opacity="1" stroke="none"/>
<path d="M62.8882 630.047C62.1648 630.408 60.4268 631.146 60.3882 632.047C59.9101 643.203 60.2264 654.381 60.3882 665.547C60.4631 670.713 60.3882 675.88 60.3882 681.047C60.3882 687.657 60.091 694.903 60.8882 701.547C60.9444 702.015 61.4175 702.521 61.8882 702.547C67.713 702.861 73.5729 703.006 79.3882 702.547C82.6783 702.287 79.1568 687.778 81.8882 685.047C79.5385 682.697 80.429 684.294 80.3882 680.047C80.2327 663.88 80.5344 647.701 79.8882 631.547C79.8599 630.84 78.8882 630.547 62.8882 630.047Z" fill="#0067c9" fill-rule="nonzero" opacity="1" stroke="none"/>
<path d="M548.888 612.047C540.554 611.959 532.209 612.066 523.888 612.547C520.675 612.732 521.013 627.949 524.388 628.047C541.215 628.532 558.055 628.047 574.888 628.047C586.943 628.047 600.682 627.416 614.888 627.047C616.424 627.007 616.414 612.594 614.388 612.547C600.392 612.221 586.388 612.681 572.388 612.547C563.923 612.465 557.527 612.138 548.888 612.047Z" fill="#0c79eb" fill-rule="nonzero" opacity="1" stroke="none"/>
<path d="M465.388 130.047C458.713 130.107 451.996 130.103 445.388 131.047C444.65 131.152 443.425 131.302 443.388 132.047C442.739 145.364 442.907 158.722 443.388 172.047C443.414 172.753 444.183 173.496 444.888 173.547C451.372 174.01 457.896 173.863 464.388 173.547C464.859 173.524 465.367 173.017 465.388 172.547C465.706 165.387 465.07 158.206 465.388 151.047C465.59 146.511 486.547 152.529 486.888 148.547C487.358 143.067 487.041 137.544 486.888 132.047C486.874 131.52 486.913 130.595 486.388 130.547C479.416 129.898 472.39 129.983 465.388 130.047Z" fill="#96d3f8" fill-rule="nonzero" opacity="1" stroke="none"/>
<path d="M229.388 517.547C229.388 515.839 229.152 516.782 230.888 515.047C233.109 516.157 249.724 515.574 249.888 513.547C250.346 507.898 250.609 502.167 249.888 496.547C249.127 490.613 256.646 476.99 254.351 473.929C252.489 471.446 229.888 486.881 229.888 484.047C229.888 479.213 230.199 474.37 229.888 469.547C229.858 469.076 229.359 468.573 228.888 468.547C223.397 468.233 217.879 468.233 212.388 468.547C210.702 468.643 211.388 471.585 211.388 472.547C211.388 487.547 211.062 502.55 211.388 517.547C211.398 518.018 211.917 518.532 212.388 518.547C217.555 518.703 222.728 518.35 227.888 518.047C228.414 518.016 228.888 517.713 229.388 517.547Z" fill="#fcfcfc" fill-rule="nonzero" opacity="1" stroke="none"/>
<path d="M254.388 215.047C253.683 215.096 252.909 215.84 252.888 216.547C252.403 233.373 252.561 250.216 252.888 267.047C252.897 267.518 253.417 268.026 253.888 268.047C261.048 268.365 268.229 268.365 275.388 268.047C275.859 268.026 276.379 267.518 276.388 267.047C276.715 250.383 277.029 233.701 276.388 217.047C276.352 216.104 275.327 215.132 274.388 215.047C267.749 214.443 261.039 214.583 254.388 215.047Z" fill="#64482c" fill-rule="nonzero" opacity="1" stroke="none"/>
<path d="M596.888 131.047C599.227 129.877 613.223 130.17 613.388 132.047C613.872 137.535 610.492 144.65 614.388 148.547C618.167 144.768 615.055 137.88 615.388 132.547C615.418 132.076 615.918 131.576 616.388 131.547C621.378 131.235 626.409 131.999 631.388 131.547C634.553 131.259 632.242 123.228 632.388 122.547C632.586 121.625 634.299 121.485 634.388 120.547C634.989 114.242 634.85 107.863 634.388 101.547C634.337 100.841 633.595 100.076 632.888 100.047C621.231 99.5675 609.538 99.4168 597.888 100.047C594.809 100.213 595.904 106.699 595.888 107.547C595.74 115.386 591.344 125.503 596.888 131.047Z" fill="#c1dee1" fill-rule="nonzero" opacity="1" stroke="none"/>
<path d="M473.388 193.547C467.969 194.61 471.888 204.524 471.888 210.047C471.888 210.95 471.844 216.984 473.388 217.047C489.375 217.699 505.392 217.373 521.388 217.047C521.859 217.037 522.367 216.517 522.388 216.047C522.706 208.887 522.706 201.706 522.388 194.547C522.367 194.076 521.859 193.556 521.388 193.547C505.392 193.22 489.089 190.466 473.388 193.547Z" fill="#fbecb2" fill-rule="nonzero" opacity="1" stroke="none"/>
<path d="M297.888 720.547C296.22 721.003 294.794 739.307 298.388 739.547C317.522 740.822 341.053 740.2 359.888 739.047C360.359 739.018 360.861 738.517 360.888 738.047C361.201 732.722 361.201 727.371 360.888 722.047C360.751 719.716 356.001 721.047 354.388 721.047C338.388 721.047 322.387 721.207 306.388 721.047C303.454 721.017 301.025 719.689 297.888 720.547Z" fill="#c1dee1" fill-rule="nonzero" opacity="1" stroke="none"/>
<path d="M179.388 433.047C174.908 434.394 178.316 442.369 178.388 447.047C178.488 453.548 178.414 460.062 178.888 466.547C179.048 468.733 183.196 467.511 185.388 467.547C193.889 467.684 202.392 468.361 210.888 468.047C211.595 468.02 212.354 467.253 212.388 466.547C212.863 456.725 212.388 446.88 212.388 437.047C212.388 436.213 212.761 435.292 212.388 434.547C210.778 431.327 202.869 433.856 200.388 434.047C193.401 434.584 186.099 431.028 179.388 433.047Z" fill="#fcfcfc" fill-rule="nonzero" opacity="1" stroke="none"/>
<path d="M249.388 573.547C243.085 575.742 248.54 586.873 248.388 593.547C248.347 595.379 248.388 597.213 248.388 599.047C248.388 603.725 244.73 612.61 249.388 613.047C258.183 613.871 267.085 613.78 275.888 613.047C276.358 613.007 276.86 612.517 276.888 612.047C277.201 606.889 276.888 601.713 276.888 596.547C276.888 590.625 278.104 581.234 276.888 574.547C276.804 574.083 276.359 573.564 275.888 573.547C274.634 573.501 276.067 569.852 274.386 569.319C270.382 568.051 263.048 569.254 263.048 569.254C263.048 569.254 261.082 570.911 258.096 571.831C255.276 572.701 251.493 572.814 249.388 573.547Z" fill="#75b3ef" fill-rule="nonzero" opacity="1" stroke="none"/>
<path d="M576.388 265.547C571.179 270.756 579.597 280.337 574.388 285.547C572.45 284.578 570.323 285.547 568.388 285.547C567.21 285.547 566.067 285.047 564.888 285.047C561.055 285.047 557.218 284.893 553.388 285.047C552.953 285.064 551.404 286.16 551.388 286.547C551.068 294.54 550.918 302.56 551.388 310.547C551.43 311.252 552.183 312.001 552.888 312.047C560.04 312.513 567.229 312.365 574.388 312.047C581.688 311.722 568.63 290.65 576.388 287.547C579.334 286.368 597.228 289.089 597.388 286.047C597.704 280.055 597.546 274.044 597.388 268.047C597.31 265.088 592.485 266.047 576.388 265.547Z" fill="#64482c" fill-rule="nonzero" opacity="1" stroke="none"/>
<path d="M428.388 102.547C424.265 103.399 426.975 120.53 426.888 123.047C426.855 124.008 425.283 126.802 427.888 127.047C432.7 127.498 437.565 126.735 442.388 127.047C444.893 127.208 442.744 131.629 445.388 132.047C451.811 133.061 458.432 132.321 464.888 131.547C465.356 131.49 465.879 131.018 465.888 130.547C466.048 122.213 465.868 113.868 465.388 105.547C465.361 105.076 464.765 104.829 464.388 104.547C459.853 101.145 453.057 104.047 447.388 104.047C441.076 104.047 434.666 101.248 428.388 102.547Z" fill="#c1dee1" fill-rule="nonzero" opacity="1" stroke="none"/>
<path d="M209.888 950.047C210.638 950.797 210.638 950.797 211.388 951.547C215.904 949.289 228.823 953.635 228.888 950.047C229.215 932.05 229.374 914.04 228.888 896.047C228.881 895.786 227.095 894.071 226.388 894.047C221.891 893.891 217.366 893.599 212.888 894.047C211.022 894.233 210.888 898.316 210.888 899.547C210.888 908.715 211.078 917.884 211.388 927.047C211.647 934.679 215.822 944.112 209.888 950.047Z" fill="#2892f9" fill-rule="nonzero" opacity="1" stroke="none"/>
<path d="M178.388 683.047C178.035 682.998 162.032 682.535 161.888 685.047C161.574 690.538 161.431 696.066 161.888 701.547C162.246 705.839 177.011 703.047 180.888 703.047C190.555 703.047 200.233 703.521 209.888 703.047C211.84 702.951 211.772 693.217 211.388 685.547C211.32 684.184 209.496 684.556 208.888 684.547C199.055 684.388 189.211 684.53 179.388 684.047C178.917 684.023 178.855 683.111 178.388 683.047Z" fill="#2892f9" fill-rule="nonzero" opacity="1" stroke="none"/>
<path d="M444.888 611.547C439.719 611.547 434.522 611.443 429.388 612.047C428.686 612.129 428.015 612.851 427.888 613.547C427.36 616.45 427.193 627.455 430.388 627.547C449.047 628.08 467.727 628.019 486.388 627.547C488.12 627.503 489.52 612.217 485.888 612.047C472.236 611.404 458.556 611.547 444.888 611.547Z" fill="#2892f9" fill-rule="nonzero" opacity="1" stroke="none"/>
<path d="M227.888 597.047C230.916 600.074 231.059 608.375 227.888 611.547C229.313 612.971 228.627 612.154 229.888 614.047C235.915 612.037 242.366 615.054 248.388 613.047C251.346 612.06 248.888 598.81 248.888 594.047C248.888 586.545 252.343 578.442 249.388 571.547C249.021 570.69 231.017 569.28 228.888 569.547C228.42 569.605 227.911 570.076 227.888 570.547C227.571 577.206 227.757 583.881 227.888 590.547C227.931 592.713 228.857 595.109 227.888 597.047Z" fill="#0c79eb" fill-rule="nonzero" opacity="1" stroke="none"/>
<path d="M142.888 685.047C146.314 688.472 144.222 694.713 143.888 699.547C143.578 704.048 134.901 700.547 130.388 700.547C130.055 700.547 129.722 700.547 129.388 700.547C123.545 700.547 116.02 697.415 111.888 701.547C112.222 701.88 112.417 702.531 112.888 702.547C122.883 702.869 132.893 702.224 142.888 702.547C147.542 702.697 174.485 709.849 178.888 706.547C180.436 705.386 179.533 704.402 180.888 703.047C176.874 699.033 169.555 702.38 163.888 702.047C163.418 702.019 162.916 701.517 162.888 701.047C162.575 695.722 162.888 690.38 162.888 685.047C162.888 681.914 161.662 670.273 163.888 668.047C162.338 666.496 159.579 667.109 157.388 667.047C153.386 666.932 149.389 666.393 145.388 666.547C141.52 666.695 147.902 680.033 142.888 685.047Z" fill="#96d3f8" fill-rule="nonzero" opacity="1" stroke="none"/>
<path d="M80.3882 702.547C89.1208 702.547 101.966 702.884 109.388 702.547C110.133 702.513 111.303 702.287 111.388 701.547C111.885 697.239 108.822 691.613 111.888 688.547C117.051 691.128 116.627 701.488 117.388 701.547C121.722 701.88 130.042 704.879 130.388 700.547C131.049 692.288 131.557 684.677 129.388 684.547C113.582 683.598 97.6775 682.855 81.8882 684.047C77.3678 684.388 79.2235 699.052 80.3882 702.547Z" fill="#0c79eb" fill-rule="nonzero" opacity="1" stroke="none"/>
<path d="M317.388 815.047C304.055 814.884 290.714 815.059 277.388 815.547C276.917 815.564 276.414 816.076 276.388 816.547C276.074 822.204 276.074 827.889 276.388 833.547C276.414 834.017 276.917 834.535 277.388 834.547C290.718 834.872 304.059 834.872 317.388 834.547C317.859 834.535 318.363 834.017 318.388 833.547C318.703 827.722 318.703 821.871 318.388 816.047C318.363 815.576 317.86 815.052 317.388 815.047Z" fill="#0c79eb" fill-rule="nonzero" opacity="1" stroke="none"/>
<path d="M161.888 751.547C159.73 753.705 158.063 752.097 155.888 753.547C152.306 755.935 152.556 765.05 153.888 769.047C156.245 769.047 160.714 767.696 160.888 770.047C161.196 774.202 160.444 778.404 160.888 782.547C160.964 783.25 161.683 783.989 162.388 784.047C168.036 784.504 173.73 784.361 179.388 784.047C184.308 783.773 176.512 769.204 181.388 769.047C191.383 768.724 201.393 769.369 211.388 769.047C211.859 769.031 212.055 768.38 212.388 768.047C208.208 763.866 201.538 767.047 195.888 767.047C191.222 767.047 186.545 767.357 181.888 767.047C177.92 766.782 182.685 753.711 179.888 753.547C173.862 753.192 166.157 755.815 161.888 751.547Z" fill="#e1ebe8" fill-rule="nonzero" opacity="1" stroke="none"/>
<path d="M115.388 611.547C103.554 611.442 91.7127 611.561 79.8882 612.047C76.7562 612.175 76.9809 627.441 80.3882 627.547C96.0474 628.031 111.725 627.873 127.388 627.547C127.859 627.537 128.357 627.017 128.388 626.547C128.699 621.89 128.699 617.203 128.388 612.547C128.239 610.303 117.431 611.565 115.388 611.547Z" fill="#0c79eb" fill-rule="nonzero" opacity="1" stroke="none"/>
<path d="M237.388 685.547C235.675 687.259 235.859 692.336 234.388 692.547C230.515 693.1 215.251 692.684 212.888 695.047C211.448 696.487 212.888 699.537 212.888 701.047C212.888 707.382 212.388 713.711 212.388 720.047C212.388 720.574 212.722 721.047 212.888 721.547C217.888 721.547 222.898 721.858 227.888 721.547C233.331 721.206 224.457 704.857 229.888 704.547C235.379 704.233 240.907 705.003 246.388 704.547C247.01 704.495 253.177 686.547 237.388 685.547Z" fill="#96d3f8" fill-rule="nonzero" opacity="1" stroke="none"/>
<path d="M548.388 586.547C545.118 587.216 546.388 593.859 546.388 597.047C546.388 601.383 546.426 605.735 546.888 610.047C546.938 610.515 547.417 611.031 547.888 611.047C557.383 611.368 566.894 611.368 576.388 611.047C576.859 611.031 577.368 610.517 577.388 610.047C577.707 602.72 577.855 595.365 577.388 588.047C577.343 587.341 576.594 586.583 575.888 586.547C566.734 586.073 557.369 584.708 548.388 586.547Z" fill="#e1ebe8" fill-rule="nonzero" opacity="1" stroke="none"/>
<path d="M290.388 595.047C285.887 595.164 281.367 595.083 276.888 595.547C276.419 595.595 275.917 596.076 275.888 596.547C275.576 601.704 275.888 606.88 275.888 612.047C275.888 617.33 272.935 623.484 277.388 627.047C277.679 627.279 278.016 627.537 278.388 627.547C284.553 627.705 290.751 628.145 296.888 627.547C301.416 627.105 298.367 618.566 298.888 614.047C299.479 608.922 299.285 605.219 298.388 596.547C298.066 593.43 292.259 594.998 290.388 595.047Z" fill="#2892f9" fill-rule="nonzero" opacity="1" stroke="none"/>
<path d="M524.388 281.547C524.888 281.297 524.888 281.297 525.388 281.047C525.722 281.38 525.917 282.025 526.388 282.047C533.214 282.364 540.062 282.364 546.888 282.047C547.359 282.025 547.863 281.517 547.888 281.047C548.203 275.222 548.203 269.371 547.888 263.547C547.746 260.911 546.979 258.274 544.388 256.547C546.571 249.997 530.408 253.047 523.388 253.047C518.581 253.047 520.816 277.975 524.388 281.547Z" fill="#aaba9e" fill-rule="nonzero" opacity="1" stroke="none"/>
<path d="M276.388 436.547C275.917 436.568 275.404 437.075 275.388 437.547C275.066 447.208 275.066 456.885 275.388 466.547C275.404 467.018 275.917 467.525 276.388 467.547C283.214 467.864 290.071 468.011 296.888 467.547C297.594 467.498 298.338 466.752 298.388 466.047C298.851 459.563 298.388 453.047 298.388 446.547C298.388 443.921 298.388 437.548 298.388 437.547C298.336 437.078 297.859 436.568 297.388 436.547C290.395 436.229 283.381 436.229 276.388 436.547Z" fill="#64482c" fill-rule="nonzero" opacity="1" stroke="none"/>
<path d="M443.888 337.047C437.587 339.695 443.388 350.711 443.388 357.547C443.388 360.159 440.735 368.318 444.388 368.547C449.378 368.858 454.39 368.668 459.388 368.547C461.229 368.502 463.094 368.46 464.888 368.047C465.348 367.941 465.872 367.518 465.888 367.047C466.21 357.385 466.21 347.708 465.888 338.047C465.847 336.811 464.515 337.047 463.888 337.047C457.222 337.047 450.034 334.463 443.888 337.047Z" fill="#abcdcd" fill-rule="nonzero" opacity="1" stroke="none"/>
<path d="M343.388 272.047C328.079 269.613 312.381 272.057 296.888 272.547C294.018 272.637 293.918 286.789 297.388 287.047C310.146 287.992 331.486 287.469 342.888 287.047C346.07 286.929 347.756 272.741 343.388 272.047Z" fill="#aaba9e" fill-rule="nonzero" opacity="1" stroke="none"/>
<path d="M395.888 595.547C391.397 594.976 382.671 592.528 382.388 597.047C382.076 602.037 382.388 607.047 382.388 612.047C382.388 615.94 380.147 627.388 383.388 627.547C389.88 627.863 396.396 627.863 402.888 627.547C403.359 627.524 403.857 627.017 403.888 626.547C404.199 621.89 403.967 617.213 403.888 612.547C403.801 607.378 403.856 602.195 403.388 597.047C403.144 594.364 398.134 595.832 395.888 595.547Z" fill="#0c79eb" fill-rule="nonzero" opacity="1" stroke="none"/>
<path d="M576.388 347.047C580.755 351.413 588.722 347.713 594.888 348.047C599.394 348.29 595.272 357.077 595.888 361.547C596.417 365.382 605.947 364.4 607.888 365.047C611.839 366.364 606.849 372.535 610.388 373.547C613.563 374.454 624.436 376.628 625.888 371.547C626.445 369.597 624.884 365.855 626.888 365.547C629.247 365.184 633.625 366.418 633.888 364.047C634.33 360.071 634.195 356.035 633.888 352.047C633.852 351.577 633.222 351.38 632.888 351.047C631.515 352.419 632.335 351.897 630.388 352.547C630.388 357.489 627.854 356.615 625.888 360.547C625.841 360.641 626.618 364.431 624.888 364.547C620.232 364.857 615.545 364.857 610.888 364.547C610.418 364.515 609.897 364.018 609.888 363.547C609.728 355.213 610.548 346.88 610.388 338.547C610.34 336.017 599.557 337.013 596.888 337.547C593.483 338.228 598.262 345.864 594.888 346.047C588.722 346.38 580.755 342.68 576.388 347.047Z" fill="#c1dee1" fill-rule="nonzero" opacity="1" stroke="none"/>
<path d="M249.888 815.547C250.638 816.297 250.638 816.297 251.388 817.047C258.396 813.543 267.06 816.213 274.888 816.547C275.359 816.567 275.555 817.213 275.888 817.547C288.672 811.154 307.599 825.836 317.888 815.547C317.555 815.213 317.359 814.558 316.888 814.547C304.059 814.222 291.217 814.871 278.388 814.547C277.917 814.535 277.414 814.017 277.388 813.547C277.074 807.889 277.846 802.195 277.388 796.547C277.331 795.842 276.594 795.089 275.888 795.047C268.069 794.577 260.207 794.577 252.388 795.047C251.682 795.089 250.942 795.842 250.888 796.547C250.402 802.87 254.373 811.062 249.888 815.547Z" fill="#2892f9" fill-rule="nonzero" opacity="1" stroke="none"/>
<path d="M213.888 562.047C213.082 562.117 211.429 563.145 211.388 564.047C210.911 574.703 210.911 585.391 211.388 596.047C211.42 596.753 212.184 597.483 212.888 597.547C217.868 597.999 222.909 597.999 227.888 597.547C230.103 597.345 229.432 593.27 229.388 591.047C229.254 584.212 228.888 577.382 228.888 570.547C228.888 567.859 230.551 562.91 227.888 562.547C224.751 562.119 221.553 562.66 218.388 562.547C216.88 562.493 215.392 561.914 213.888 562.047Z" fill="#0c79eb" fill-rule="nonzero" opacity="1" stroke="none"/>
<path d="M212.388 436.047C211.918 436.073 211.404 436.575 211.388 437.047C211.066 446.875 211.076 456.718 211.388 466.547C211.563 472.051 225.163 468.759 228.888 468.547C230.566 468.451 229.872 463.634 229.888 463.047C230.027 458.058 231.54 443.654 229.888 437.047C229.774 436.589 229.359 436.073 228.888 436.047C223.397 435.733 217.879 435.733 212.388 436.047Z" fill="#64482c" fill-rule="nonzero" opacity="1" stroke="none"/>
<path d="M237.388 669.047C235.231 671.204 233.693 684.851 236.388 687.547C239.256 684.679 242.676 688.005 245.888 687.547C248.281 687.205 245.486 683.134 247.888 683.047C256.716 682.726 265.567 683.519 274.388 683.047C278.138 682.846 277.163 672.322 237.388 669.047Z" fill="#b6e7fe" fill-rule="nonzero" opacity="1" stroke="none"/>
<path d="M618.388 337.047C616.272 337.575 609.44 337.227 609.388 338.547C609.068 346.707 609.542 354.881 609.388 363.047C609.381 363.424 607.986 365.987 609.888 366.047C614.889 366.203 619.905 365.986 624.888 365.547C625.703 365.475 629.407 358.245 631.388 356.547C629.775 353.321 633.149 353.709 633.888 351.047C637.169 339.236 628.078 339.943 618.388 337.047Z" fill="#abcdcd" fill-rule="nonzero" opacity="1" stroke="none"/>
<path d="M292.388 311.547C290.314 312.621 291.096 321.436 288.888 321.547C278.267 322.078 262.161 321.263 251.388 321.547C247.471 321.65 248.989 329.149 249.388 331.547C249.466 332.012 249.917 332.536 250.388 332.547C265.385 332.873 280.392 332.873 295.388 332.547C295.767 332.538 296.877 330.976 296.888 330.547C297.046 324.549 297.204 318.538 296.888 312.547C296.807 311.012 293.753 310.84 292.388 311.547Z" fill="#2892f9" fill-rule="nonzero" opacity="1" stroke="none"/>
<path d="M552.388 149.547C550.264 149.912 551.388 152.496 551.388 154.547C551.388 160.38 550.929 166.231 551.388 172.047C551.444 172.751 552.183 173.501 552.888 173.547C560.04 174.013 567.229 173.865 574.388 173.547C574.859 173.526 575.368 173.017 575.388 172.547C575.707 165.22 575.707 157.873 575.388 150.547C575.368 150.076 574.859 149.567 574.388 149.547C567.062 149.228 559.615 148.303 552.388 149.547Z" fill="#64482c" fill-rule="nonzero" opacity="1" stroke="none"/>
<path d="M239.388 422.047C230.387 421.997 221.377 422.065 212.388 422.547C209.198 422.717 210.322 436.932 212.388 437.047C224.038 437.694 235.781 437.737 247.388 436.547C250.733 436.204 248.391 423.563 248.388 423.547C248.066 421.719 240.75 422.054 239.388 422.047Z" fill="#2892f9" fill-rule="nonzero" opacity="1" stroke="none"/>
<path d="M248.888 513.547C244.921 514.113 246.222 513.213 244.388 515.047C247.461 518.12 245.524 523.703 245.388 528.047C245.002 540.399 229.361 528.878 228.888 534.547C228.431 540.028 228.574 545.555 228.888 551.047C228.915 551.517 229.417 552.022 229.888 552.047C235.88 552.362 241.888 552.047 247.888 552.047C253.786 552.047 250.888 545.887 250.888 542.047C250.888 533.213 250.888 524.38 248.888 513.547Z" fill="#abcdcd" fill-rule="nonzero" opacity="1" stroke="none"/>
<path d="M147.888 611.547C143.184 612.704 146.555 621.213 146.888 626.047C146.921 626.517 147.417 627.032 147.888 627.047C158.55 627.37 169.226 627.37 179.888 627.047C182.949 626.954 182.875 611.705 179.388 611.547C168.899 611.07 158.084 609.038 147.888 611.547Z" fill="#2892f9" fill-rule="nonzero" opacity="1" stroke="none"/>
<path d="M343.388 627.047C343.055 627.38 342.408 627.576 342.388 628.047C342.069 635.707 342.232 643.381 342.388 651.047C342.399 651.573 342.722 652.047 342.888 652.547C349.055 652.547 355.239 653.008 361.388 652.547C362.093 652.494 362.844 651.752 362.888 651.047C363.356 643.561 363.356 636.032 362.888 628.547C362.844 627.841 361.888 627.547 343.388 627.047Z" fill="#96d3f8" fill-rule="nonzero" opacity="1" stroke="none"/>
<path d="M326.888 738.047C324.346 738.242 319.463 736.998 319.388 739.547C319.231 744.88 319.592 750.219 319.888 755.547C320.048 758.429 321.133 765.301 319.388 767.047C323.52 771.178 331.055 768.38 336.888 768.047C337.359 768.02 337.677 767.468 337.888 767.047C338.779 765.265 337.961 756.866 337.888 754.547C337.732 749.546 337.855 744.527 337.388 739.547C337.091 736.376 331.072 738.547 326.888 738.047Z" fill="#e1ebe8" fill-rule="nonzero" opacity="1" stroke="none"/>
<path d="M253.888 267.047C251.05 269.885 252.994 275.034 252.888 279.047C252.374 298.589 255.295 287.047 266.388 287.047C269.522 287.047 274.973 288.962 277.388 286.547C272.297 281.455 280.48 272.138 253.888 267.047Z" fill="#d6803e" fill-rule="nonzero" opacity="1" stroke="none"/>
<path d="M276.388 571.547C281.56 566.374 272.092 555.195 278.388 552.047C280.886 550.798 298.449 553.852 298.888 551.547C300.44 543.398 296.295 537.226 299.888 537.047C306.555 536.713 315.168 540.766 319.888 536.047C319.555 535.713 319.359 535.058 318.888 535.047C305.225 534.721 293.87 535.839 280.204 535.676C279.571 535.669 275.792 535.43 275.669 537.325C275.358 542.148 274.737 545.716 274.888 550.547C274.905 551.076 274.262 569.42 276.388 571.547Z" fill="#96d3f8" fill-rule="nonzero" opacity="1" stroke="none"/>
<path d="M250.388 310.547C247.83 313.105 247.473 322.237 251.388 322.547C257.536 323.032 263.722 322.547 269.888 322.547C276.555 322.547 283.229 322.864 289.888 322.547C291.531 322.468 291.227 313.708 292.888 312.047C289.66 308.818 277.394 311.047 250.388 310.547Z" fill="#0067c9" fill-rule="nonzero" opacity="1" stroke="none"/>
<path d="M181.888 948.547C181.222 949.213 179.954 949.606 179.888 950.547C179.27 959.358 179.416 968.226 179.888 977.047C180.05 980.065 196.104 979.502 196.388 976.547C197.219 967.905 191.75 956.685 197.888 950.547C194.855 947.514 188.359 948.547 181.888 948.547Z" fill="#0c79eb" fill-rule="nonzero" opacity="1" stroke="none"/>
<path d="M252.388 815.547C246.592 817.679 251.055 827.88 251.388 834.047C251.414 834.517 251.918 835.015 252.388 835.047C257.045 835.357 261.724 835.184 266.388 835.047C269.22 834.963 272.083 835.447 274.888 835.047C275.588 834.947 276.329 834.251 276.388 833.547C276.845 828.066 276.845 822.528 276.388 817.047C276.329 816.342 275.594 815.591 274.888 815.547C267.403 815.079 259.427 812.956 252.388 815.547Z" fill="#fcfcfc" fill-rule="nonzero" opacity="1" stroke="none"/>
<path d="M338.888 576.547C332.722 576.713 326.512 576.3 320.388 577.047C315.803 577.606 318.195 593.755 318.388 595.547C318.49 596.484 319.449 597.461 320.388 597.547C327.027 598.15 333.738 598.011 340.388 597.547C341.094 597.497 341.388 596.547 341.888 596.047C338.911 590.091 345.262 581.92 338.888 576.547Z" fill="#0c79eb" fill-rule="nonzero" opacity="1" stroke="none"/>
<path d="M278.388 551.047C277.9 550.914 276.425 551.896 276.388 552.547C276.074 558.038 276.074 563.555 276.388 569.047C276.415 569.517 276.918 570.014 277.388 570.047C281.878 570.356 286.399 569.737 290.888 570.047C294.742 570.312 286.941 585.52 296.888 580.547C297.31 580.336 297.871 580.018 297.888 579.547C298.209 570.552 298.209 561.541 297.888 552.547C297.871 552.075 297.31 551.757 296.888 551.547C291.249 548.727 284.132 552.606 278.388 551.047Z" fill="#96d3f8" fill-rule="nonzero" opacity="1" stroke="none"/>
<path d="M545.888 219.547C545.183 219.6 544.421 220.34 544.388 221.047C543.912 231.369 544.065 241.718 544.388 252.047C544.505 255.8 558.743 256.342 558.888 252.047C559.204 242.717 559.435 233.322 558.388 224.047C557.829 219.098 548.532 219.348 545.888 219.547Z" fill="#fbecb2" fill-rule="nonzero" opacity="1" stroke="none"/>
<path d="M317.888 627.047C323.197 632.355 332.888 627.713 340.388 628.047C340.859 628.067 341.368 628.576 341.388 629.047C341.707 636.373 341.07 643.72 341.388 651.047C341.409 651.517 342.055 651.713 342.388 652.047C342.722 651.713 343.368 651.517 343.388 651.047C343.707 643.72 343.07 636.373 343.388 629.047C343.409 628.576 343.918 628.073 344.388 628.047C350.046 627.732 355.724 628.2 361.388 628.047C361.915 628.032 362.388 627.713 362.888 627.547C362.888 622.702 360.462 616.472 363.888 613.047C363.555 612.713 363.358 612.079 362.888 612.047C356.069 611.571 349.222 611.388 342.388 611.547C338.564 611.635 344.562 625.834 339.888 626.047C332.555 626.38 323.079 621.856 317.888 627.047Z" fill="#e1ebe8" fill-rule="nonzero" opacity="1" stroke="none"/>
<path d="M111.388 791.547C106.661 796.274 109.721 804.863 109.888 811.547C110.057 818.287 125.059 815.49 129.388 814.047C129.388 806.88 129.706 799.706 129.388 792.547C129.367 792.076 128.722 791.88 111.388 791.547Z" fill="#0067c9" fill-rule="nonzero" opacity="1" stroke="none"/>
<path d="M213.388 352.047C209.74 352.976 211.604 356.405 211.388 361.047C211.156 366.044 210.732 371.046 210.888 376.047C210.941 377.723 228.81 377.894 228.888 376.047C229.207 368.553 229.356 361.032 228.888 353.547C228.844 352.841 228.091 352.128 227.388 352.047C226.608 351.957 216.835 351.169 213.388 352.047Z" fill="#2892f9" fill-rule="nonzero" opacity="1" stroke="none"/>
<path d="M422.888 610.547C418.404 615.031 410.222 611.213 403.888 611.547C403.417 611.571 402.92 612.076 402.888 612.547C402.578 617.203 402.439 621.902 402.888 626.547C403.307 630.879 412.686 624.597 412.888 628.547C413.23 635.207 411.279 642.22 413.388 648.547C419.089 644.746 414.554 634.89 414.888 628.047C415.084 624.037 422.903 627.525 426.888 627.047C429.745 626.704 428.031 621.401 428.388 618.547C429.345 610.89 427.501 615.159 422.888 610.547Z" fill="#e1ebe8" fill-rule="nonzero" opacity="1" stroke="none"/>
<path d="M336.888 815.547C331.053 815.643 325.205 815.575 319.388 816.047C318.918 816.085 318.416 816.576 318.388 817.047C318.075 822.371 317.933 827.733 318.388 833.047C318.449 833.751 319.183 834.498 319.888 834.547C326.706 835.011 333.557 834.705 340.388 834.547C340.761 834.538 341.09 834.27 341.388 834.047C346.145 830.479 342.556 819.896 342.388 817.047C342.305 815.64 337.275 815.54 336.888 815.547Z" fill="#fcfcfc" fill-rule="nonzero" opacity="1" stroke="none"/>
<path d="M115.888 514.047C113.014 514.166 107.539 512.673 107.388 515.547C107.073 521.538 107.073 527.555 107.388 533.547C107.413 534.017 107.917 534.524 108.388 534.547C114.88 534.863 121.405 535.01 127.888 534.547C128.593 534.496 129.333 533.751 129.388 533.047C129.847 527.231 129.703 521.371 129.388 515.547C129.246 512.924 117.636 513.974 115.888 514.047Z" fill="#fcfcfc" fill-rule="nonzero" opacity="1" stroke="none"/>
<path d="M405.388 381.047C398.912 384.156 403.546 395.371 403.888 402.547C403.911 403.017 404.418 403.52 404.888 403.547C410.546 403.861 416.23 403.861 421.888 403.547C422.266 403.526 423.377 401.986 423.388 401.547C423.546 395.215 423.85 388.863 423.388 382.547C423.337 381.841 422.593 381.105 421.888 381.047C416.407 380.59 410.346 378.666 405.388 381.047Z" fill="#2892f9" fill-rule="nonzero" opacity="1" stroke="none"/>
<path d="M384.388 576.047C377.594 575.942 381.651 586.725 381.888 594.547C382.015 598.719 397.797 597.659 402.388 597.047C407.533 596.36 404.045 586.735 403.888 581.547C403.872 581.008 403.67 578.303 402.388 578.047C396.758 576.921 391.394 576.154 384.388 576.047Z" fill="#91b0d2" fill-rule="nonzero" opacity="1" stroke="none"/>
<path d="M321.388 311.547C318.575 314.36 320.388 315.558 320.388 320.047C320.388 323.88 319.702 327.775 320.388 331.547C321.256 336.319 331.984 329.845 339.388 333.547C340.807 332.127 339.991 329.551 339.888 327.547C339.641 322.717 339.854 317.86 339.388 313.047C339.223 311.339 335.589 312.047 321.388 311.547Z" fill="#0658a8" fill-rule="nonzero" opacity="1" stroke="none"/>
<path d="M247.888 332.547C241.887 332.642 235.872 332.574 229.888 333.047C229.507 333.077 228.401 334.6 228.388 335.047C228.231 340.378 228.075 345.722 228.388 351.047C228.416 351.517 228.917 352.023 229.388 352.047C235.714 352.363 242.072 352.509 248.388 352.047C250.506 351.892 252.318 332.476 247.888 332.547Z" fill="#0c79eb" fill-rule="nonzero" opacity="1" stroke="none"/>
<path d="M578.388 173.047C577.885 173.083 576.424 173.897 576.388 174.547C576.074 180.204 576.074 185.889 576.388 191.547C576.463 192.887 593.851 192.695 594.888 192.547C598.37 192.049 597.561 177.911 596.888 174.547C596.358 171.893 581.025 172.854 578.388 173.047Z" fill="#64482c" fill-rule="nonzero" opacity="1" stroke="none"/>
<path d="M341.888 610.047C335.286 613.255 327.227 610.883 319.888 611.047C315.847 611.136 317.239 624.602 317.388 625.547C317.498 626.245 318.183 627.001 318.888 627.047C326.207 627.514 333.562 627.365 340.888 627.047C341.359 627.026 341.852 626.517 341.888 626.047C342.195 622.058 341.74 618.044 341.888 614.047C341.967 611.91 344.173 608.937 341.888 610.047Z" fill="#2892f9" fill-rule="nonzero" opacity="1" stroke="none"/>
<path d="M422.888 596.547C418.427 597.956 421.555 605.88 421.888 610.547C422.305 616.386 436.092 613.565 444.388 613.047C444.859 613.017 445.358 612.517 445.388 612.047C445.699 607.223 445.699 602.37 445.388 597.547C445.358 597.076 444.859 596.567 444.388 596.547C437.229 596.228 429.722 594.388 422.888 596.547Z" fill="#fcfcfc" fill-rule="nonzero" opacity="1" stroke="none"/>
<path d="M468.388 498.047C468.174 498.007 464.964 498.251 464.888 499.547C464.575 504.871 464.575 510.222 464.888 515.547C464.916 516.017 465.417 516.523 465.888 516.547C472.214 516.863 478.563 516.863 484.888 516.547C485.359 516.523 485.857 516.017 485.888 515.547C486.303 509.323 487.278 498.761 484.388 498.547C476.644 497.973 474.255 499.137 468.388 498.047Z" fill="#fcfcfc" fill-rule="nonzero" opacity="1" stroke="none"/>
<path d="M276.888 579.047C271.821 581.211 275.555 590.047 275.888 595.547C275.917 596.017 276.418 596.513 276.888 596.547C281.211 596.855 285.555 596.547 289.888 596.547C291.958 596.547 297.719 597.67 297.888 595.047C298.199 590.223 298.339 585.359 297.888 580.547C297.608 577.561 292.981 579.598 291.388 579.547C286.554 579.391 281.336 577.146 276.888 579.047Z" fill="#75b3ef" fill-rule="nonzero" opacity="1" stroke="none"/>
<path d="M388.888 531.547C386.666 531.612 382.531 530.828 382.388 533.047C382.077 537.87 381.937 542.734 382.388 547.547C382.454 548.251 383.282 548.683 383.888 549.047C389.035 552.135 395.888 549.713 401.888 549.547C402.359 549.533 402.861 549.017 402.888 548.547C403.201 543.222 403.201 537.871 402.888 532.547C402.754 530.269 393.469 531.411 388.888 531.547Z" fill="#0c79eb" fill-rule="nonzero" opacity="1" stroke="none"/>
<path d="M318.388 486.047C313.055 486.213 307.703 486.078 302.388 486.547C301.919 486.588 301.413 487.076 301.388 487.547C301.073 493.538 301.073 499.555 301.388 505.547C301.413 506.017 301.918 506.519 302.388 506.547C307.712 506.86 313.057 506.699 318.388 506.547C318.915 506.531 319.388 506.213 319.888 506.047C319.888 499.711 319.586 493.379 318.388 486.047Z" fill="#799d9f" fill-rule="nonzero" opacity="1" stroke="none"/>
<path d="M340.888 596.047C333.888 596.213 326.874 596.07 319.888 596.547C317.013 596.743 318.75 608.631 319.888 612.047C326.888 612.047 333.904 612.512 340.888 612.047C344.293 611.82 342.388 599.579 340.888 596.047Z" fill="#fcfcfc" fill-rule="nonzero" opacity="1" stroke="none"/>
<path d="M195.388 631.047C189.881 633.48 193.388 643.047 193.888 649.047C193.947 649.751 194.684 650.484 195.388 650.547C200.535 651.001 205.742 651.001 210.888 650.547C211.593 650.484 212.329 649.751 212.388 649.047C212.845 643.566 212.702 638.038 212.388 632.547C212.316 631.282 211.037 631.567 210.388 631.547C205.388 631.39 199.964 629.024 195.388 631.047Z" fill="#75b3ef" fill-rule="nonzero" opacity="1" stroke="none"/>
<path d="M428.388 337.047C427.888 337.547 427.888 337.547 427.388 338.047C432.975 343.633 422.755 354.291 429.888 359.047C432.25 360.621 435.55 358.547 438.388 358.547C439.613 358.547 444.266 359.987 444.388 357.547C444.704 351.221 444.85 344.863 444.388 338.547C444.337 337.841 443.388 337.547 428.388 337.047Z" fill="#e1ebe8" fill-rule="nonzero" opacity="1" stroke="none"/>
<path d="M276.888 421.547C275.651 422.092 273.634 437.395 276.888 437.547C283.714 437.864 290.562 437.864 297.388 437.547C300.316 437.41 298.975 422.159 296.888 422.047C291.063 421.732 285.22 422.192 279.388 422.047C278.539 422.025 277.666 421.204 276.888 421.547Z" fill="#2892f9" fill-rule="nonzero" opacity="1" stroke="none"/>
<path d="M466.388 515.547C461.393 517.48 464.543 526.201 464.888 531.547C464.919 532.017 465.418 532.52 465.888 532.547C471.379 532.86 476.89 532.389 482.388 532.547C488.209 532.713 486.014 520.3 485.388 516.547C485.311 516.082 484.859 515.571 484.388 515.547C478.396 515.231 471.984 513.381 466.388 515.547Z" fill="#0c79eb" fill-rule="nonzero" opacity="1" stroke="none"/>
<path d="M211.388 468.547C215.284 472.443 222.388 469.213 227.888 469.547C228.359 469.575 228.856 470.076 228.888 470.547C229.198 475.036 228.579 479.557 228.888 484.047C229.164 488.051 236.878 484.886 240.888 485.047C244.561 485.193 242.159 482.791 244.888 482.047C247.003 481.47 249.427 482.027 251.388 481.047C249.539 479.197 244.636 481.643 244.388 479.047C244.088 475.894 243.96 472.684 244.388 469.547C244.484 468.846 245.388 468.547 245.888 468.047C242.555 464.713 232.68 465.258 229.888 465.547C228.95 465.644 228.825 467.439 227.888 467.547C222.755 468.133 217.545 467.234 212.388 467.547C211.918 467.575 211.722 468.213 211.388 468.547Z" fill="#fcfcfc" fill-rule="nonzero" opacity="1" stroke="none"/>
<path d="M143.888 611.047C138.72 611.177 133.536 611.079 128.388 611.547C127.919 611.589 127.42 612.076 127.388 612.547C127.078 617.203 127.078 621.89 127.388 626.547C127.42 627.017 127.917 627.522 128.388 627.547C134.38 627.862 140.406 628.007 146.388 627.547C149.883 627.278 148.007 613.939 147.888 613.047C147.559 610.575 145.316 611.01 143.888 611.047Z" fill="#c1dee1" fill-rule="nonzero" opacity="1" stroke="none"/>
<path d="M246.888 767.047C248.388 768.297 248.388 768.297 249.888 769.547C252.844 766.591 251.222 761.213 250.888 757.047C250.851 756.577 250.359 756.074 249.888 756.047C244.564 755.733 239.212 756.36 233.888 756.047C231.719 755.919 229.45 754.859 227.388 755.547C223.231 756.932 223.739 768.414 226.388 768.547C232.714 768.863 239.072 769.009 245.388 768.547C246.093 768.495 246.388 767.547 246.888 767.047Z" fill="#b6e7fe" fill-rule="nonzero" opacity="1" stroke="none"/>
<path d="M384.888 738.047C380.211 739.846 383.405 748.059 383.888 753.047C383.956 753.75 384.684 754.486 385.388 754.547C390.702 755.002 396.074 755.002 401.388 754.547C405.39 754.204 405.078 738.224 401.888 738.047C396.23 737.732 390.177 736.012 384.888 738.047Z" fill="#75b3ef" fill-rule="nonzero" opacity="1" stroke="none"/>
<path d="M589.388 817.547C587.115 817.699 582.093 817.735 580.888 820.547C580.108 822.368 581.912 822.535 579.888 823.547C578.772 824.105 577.529 822.623 576.888 824.547C576.324 826.24 575.663 834.274 578.388 834.547C582.866 834.994 587.39 834.41 591.888 834.547C593.231 834.587 594.686 835.647 595.888 835.047C596.31 834.836 596.859 834.517 596.888 834.047C597.2 829.056 597.341 824.026 596.888 819.047C596.657 816.507 591.932 817.376 589.388 817.547Z" fill="#0c79eb" fill-rule="nonzero" opacity="1" stroke="none"/>
<path d="M277.888 739.047C273.48 740.613 276.555 748.38 276.888 753.047C276.922 753.517 277.417 754.022 277.888 754.047C284.047 754.362 290.23 754.362 296.388 754.047C299.422 753.891 298.61 739.19 295.888 739.047C289.896 738.731 283.542 737.037 277.888 739.047Z" fill="#2892f9" fill-rule="nonzero" opacity="1" stroke="none"/>
<path d="M163.888 667.047C160.606 668.178 161.025 684.759 163.388 685.547C167.818 687.023 172.749 685.582 177.388 685.047C178.091 684.965 178.826 684.251 178.888 683.547C179.342 678.4 179.201 673.204 178.888 668.047C178.86 667.576 178.359 667.078 177.888 667.047C173.232 666.736 168.3 665.526 163.888 667.047Z" fill="#0c79eb" fill-rule="nonzero" opacity="1" stroke="none"/>
<path d="M232.388 755.547C236.411 759.569 243.71 757.391 249.388 757.047C249.859 757.018 250.055 756.38 250.388 756.047C247.927 751.124 252.202 744.737 249.388 740.047C246.896 735.892 239.709 738.564 234.888 739.047C234.185 739.117 233.498 739.848 233.388 740.547C233.001 743 234.665 753.27 232.388 755.547Z" fill="#e1ebe8" fill-rule="nonzero" opacity="1" stroke="none"/>
<path d="M608.888 172.047C603.44 174.771 611.458 190.599 597.388 180.047C594.771 182.663 595.388 187.38 595.888 191.047C596.451 195.176 611.52 193.255 613.888 193.047C614.593 192.984 615.11 192.196 615.388 191.547C617.687 186.183 616.231 179.872 615.888 174.047C615.847 173.341 614.888 173.047 608.888 172.047Z" fill="#c1dee1" fill-rule="nonzero" opacity="1" stroke="none"/>
<path d="M211.888 416.547C210.753 417.682 211.535 420.929 209.888 421.047C205.222 421.38 196.378 417.394 195.888 422.047C194.364 436.523 198.557 438.157 212.388 433.547C212.388 430.197 210.041 423.673 213.388 423.547C221.882 423.226 230.394 423.867 238.888 423.547C239.359 423.529 239.555 422.88 239.888 422.547C239.555 422.213 239.359 421.565 238.888 421.547C230.561 421.226 222.215 421.867 213.888 421.547C212.078 421.477 213.146 417.804 211.888 416.547Z" fill="#e1ebe8" fill-rule="nonzero" opacity="1" stroke="none"/>
<path d="M162.888 739.547C159.523 740.596 161.888 746.466 161.888 749.547C161.888 750.195 160.598 754.419 162.888 754.547C168.546 754.861 174.23 754.861 179.888 754.547C182.94 754.377 182.936 739.842 179.388 739.547C173.907 739.09 168.139 737.909 162.888 739.547Z" fill="#42b0fe" fill-rule="nonzero" opacity="1" stroke="none"/>
<path d="M214.388 611.047C208.235 611.662 211.138 618.033 211.388 624.547C211.422 625.419 212.066 626.635 212.888 627.047C214.658 627.931 227.227 626.754 228.888 626.547C229.356 626.488 229.851 626.016 229.888 625.547C230.276 620.703 233.123 612.139 228.388 611.047C223.816 609.991 219.015 610.583 214.388 611.047Z" fill="#2892f9" fill-rule="nonzero" opacity="1" stroke="none"/>
<path d="M212.888 517.047C208.529 518.786 211.214 526.356 211.388 531.047C211.561 535.704 224.909 533.233 227.888 533.047C228.809 532.989 231.298 517.357 227.888 517.047C222.909 516.594 217.532 515.194 212.888 517.047Z" fill="#cbc8c4" fill-rule="nonzero" opacity="1" stroke="none"/>
<path d="M406.388 962.047C402.859 965.576 403.429 973.67 404.888 978.047C410.055 978.047 415.242 978.501 420.388 978.047C423.89 977.738 421.994 964.566 421.888 963.547C421.815 962.843 420.888 962.547 406.388 962.047Z" fill="#c1dee1" fill-rule="nonzero" opacity="1" stroke="none"/>
<path d="M131.888 684.047C127.105 684.863 128.842 701.44 130.388 701.547C134.878 701.856 139.399 701.856 143.888 701.547C144.358 701.514 144.858 701.017 144.888 700.547C145.199 695.723 145.47 690.845 144.888 686.047C144.361 681.694 136.21 683.309 131.888 684.047Z" fill="#42b0fe" fill-rule="nonzero" opacity="1" stroke="none"/>
<path d="M402.888 435.547C397.222 435.713 391.538 435.576 385.888 436.047C383.001 436.287 382.993 449.169 386.388 449.547C392.188 450.191 398.352 450.892 403.888 449.047C403.888 444.872 405.268 440.686 402.888 435.547Z" fill="#b6e7fe" fill-rule="nonzero" opacity="1" stroke="none"/>
<path d="M199.888 738.547C198.946 738.59 196.552 739.016 196.388 740.547C195.944 744.689 195.819 748.919 196.388 753.047C196.517 753.981 197.456 754.908 198.388 755.047C202.18 755.608 206.096 755.608 209.888 755.047C214.878 754.307 212.248 745.078 211.888 740.047C211.601 736.026 203.915 738.36 199.888 738.547Z" fill="#c1dee1" fill-rule="nonzero" opacity="1" stroke="none"/>
<path d="M249.388 612.047C245.195 613.714 247.907 621.06 248.388 625.547C248.778 629.183 262.816 627.086 263.388 627.047C266.917 626.803 264.154 612.073 263.888 612.047C259.079 611.566 253.879 610.261 249.388 612.047Z" fill="#b6e7fe" fill-rule="nonzero" opacity="1" stroke="none"/>
<path d="M184.388 721.047C183.484 720.864 181.031 721.521 180.888 723.047C180.437 727.859 180.577 732.723 180.888 737.547C180.919 738.017 181.418 738.509 181.888 738.547C186.055 738.88 194.119 741.718 194.388 737.547C194.699 732.723 194.97 727.845 194.388 723.047C194.275 722.111 193.289 721.324 192.388 721.047C188.908 719.976 187.556 721.685 184.388 721.047Z" fill="#e1ebe8" fill-rule="nonzero" opacity="1" stroke="none"/>
<path d="M384.888 568.047C382.225 568.711 384.384 568.079 383.888 572.047C383.778 572.926 383.013 578.898 385.388 579.047C390.378 579.358 395.39 578.895 400.388 579.047C400.915 579.062 401.388 579.713 401.888 579.547C405.407 578.374 404.758 568.175 402.388 568.047C396.563 567.732 390.548 566.634 384.888 568.047Z" fill="#fcfcfc" fill-rule="nonzero" opacity="1" stroke="none"/>
<path d="M277.388 569.047C274.975 569.71 275.888 572.066 275.888 574.547C275.888 574.847 274.828 580.299 277.388 580.547C282.033 580.996 286.732 580.857 291.388 580.547C293.23 580.424 293.984 569.22 291.388 569.047C286.732 568.736 281.888 567.809 277.388 569.047Z" fill="#fcfcfc" fill-rule="nonzero" opacity="1" stroke="none"/>
<path d="M247.925 479.343C250.283 481.701 248.645 479.33 248.936 482.673C249.269 486.506 250.02 488.332 252.741 491.053C255.579 488.215 260.092 485.343 260.425 481.343C260.62 478.996 264.026 481.766 264.425 478.843C264.853 475.705 264.725 472.495 264.425 469.343C264.092 465.843 258.676 468.154 255.192 468.629C251.215 469.171 253.114 475.12 252.425 476.843C251.382 479.449 249.66 477.607 247.925 479.343Z" fill="#ef84a4" fill-rule="nonzero" opacity="1" stroke="none"/>
<path d="M227.388 563.047C233.902 569.561 221.227 571.88 235.388 571.047C237.084 570.947 238.858 571.057 240.388 570.547C240.388 559.633 242.579 556.192 230.388 557.547C230.121 557.576 227.399 563.033 227.388 563.047Z" fill="#5d95bd" fill-rule="nonzero" opacity="1" stroke="none"/>
<path d="M245.388 467.547C240.385 469.101 242.856 473.664 243.388 480.047C243.546 481.936 251.456 481.788 253.388 481.547C257.691 481.009 253.625 474.725 253.128 470.417C252.801 467.583 248.113 466.7 245.388 467.547Z" fill="#ef84a4" fill-rule="nonzero" opacity="1" stroke="none"/>
<path d="M111.388 687.547C108.187 690.748 109.388 696.547 109.888 701.047C109.966 701.749 110.888 702.047 111.388 702.547C112.802 701.604 114.729 701.915 116.388 701.547C119.012 700.964 117.556 696.229 117.388 693.547C117.295 692.052 113.748 689.121 111.388 687.547Z" fill="#2892f9" fill-rule="nonzero" opacity="1" stroke="none"/>
<g opacity="1">
<path d="M246.75 490.25C246.684 490.249 246.614 491.389 246.594 492.812C246.573 494.236 246.622 495.405 246.688 495.406C251.866 496.564 256.978 496.344 262.188 495.5C262.252 495.501 262.325 494.392 262.344 493C262.363 491.608 262.314 490.47 262.25 490.469C257.036 491.274 251.918 491.445 246.75 490.25Z" fill="#64482c" stroke="none"/>
</g>
</g>
</g>
</svg>
