<svg width="236" height="32" viewBox="0 0 236 32" fill="none" xmlns="http://www.w3.org/2000/svg">
<rect x="1" y="1" width="234" height="30" fill="#343434"/>
<path d="M79 13.25H80.4219L81.9453 20.3203L83.1953 15.8047H84.4219L85.6875 20.3203L87.2109 13.25H88.6328L86.5859 22H85.2109L83.8125 17.2031L82.4219 22H81.0469L79 13.25ZM91.1094 13.2812H94.7891V20.8828H97.6406V22H90.5V20.8828H93.3516V14.3984H91.1094V13.2812ZM93.3516 9.88281H94.7891V11.6953H93.3516V9.88281ZM103.078 10.7656V13.25H106.344V14.3672H103.078V19.1172C103.078 19.763 103.201 20.2135 103.445 20.4688C103.69 20.724 104.117 20.8516 104.727 20.8516H106.344V22H104.586C103.508 22 102.747 21.7839 102.305 21.3516C101.862 20.9193 101.641 20.1745 101.641 19.1172V14.3672H99.3047V13.25H101.641V10.7656H103.078ZM116.133 16.5781V22H114.688V16.5781C114.688 15.7917 114.549 15.2135 114.273 14.8438C113.997 14.474 113.565 14.2891 112.977 14.2891C112.305 14.2891 111.786 14.5286 111.422 15.0078C111.062 15.4818 110.883 16.1641 110.883 17.0547V22H109.445V9.84375H110.883V14.5625C111.138 14.0625 111.484 13.6849 111.922 13.4297C112.359 13.1693 112.878 13.0391 113.477 13.0391C114.367 13.0391 115.031 13.3333 115.469 13.9219C115.911 14.5052 116.133 15.3906 116.133 16.5781ZM124.266 14.3672V9.84375H125.703V22H124.266V20.8984C124.026 21.3307 123.706 21.6615 123.305 21.8906C122.909 22.1146 122.451 22.2266 121.93 22.2266C120.872 22.2266 120.039 21.8177 119.43 21C118.826 20.1771 118.523 19.0443 118.523 17.6016C118.523 16.1797 118.828 15.0651 119.438 14.2578C120.047 13.4453 120.878 13.0391 121.93 13.0391C122.456 13.0391 122.919 13.1536 123.32 13.3828C123.721 13.6068 124.036 13.9349 124.266 14.3672ZM120.039 17.6328C120.039 18.7474 120.216 19.5885 120.57 20.1562C120.924 20.724 121.448 21.0078 122.141 21.0078C122.833 21.0078 123.359 20.7214 123.719 20.1484C124.083 19.5755 124.266 18.737 124.266 17.6328C124.266 16.5234 124.083 15.6849 123.719 15.1172C123.359 14.5443 122.833 14.2578 122.141 14.2578C121.448 14.2578 120.924 14.5417 120.57 15.1094C120.216 15.6771 120.039 16.5182 120.039 17.6328ZM136.227 15.0547C135.919 14.8151 135.607 14.6406 135.289 14.5312C134.971 14.4219 134.622 14.3672 134.242 14.3672C133.346 14.3672 132.661 14.6484 132.188 15.2109C131.714 15.7734 131.477 16.5859 131.477 17.6484V22H130.031V13.25H131.477V14.9609C131.716 14.3411 132.083 13.8672 132.578 13.5391C133.078 13.2057 133.669 13.0391 134.352 13.0391C134.706 13.0391 135.036 13.0833 135.344 13.1719C135.651 13.2604 135.945 13.3984 136.227 13.5859V15.0547ZM142.328 17.6016H141.852C141.013 17.6016 140.38 17.75 139.953 18.0469C139.531 18.3385 139.32 18.776 139.32 19.3594C139.32 19.8854 139.479 20.2943 139.797 20.5859C140.115 20.8776 140.555 21.0234 141.117 21.0234C141.909 21.0234 142.531 20.75 142.984 20.2031C143.438 19.651 143.667 18.8906 143.672 17.9219V17.6016H142.328ZM145.117 17.0078V22H143.672V20.7031C143.365 21.224 142.977 21.6094 142.508 21.8594C142.044 22.1042 141.479 22.2266 140.812 22.2266C139.922 22.2266 139.211 21.9766 138.68 21.4766C138.148 20.9714 137.883 20.2969 137.883 19.4531C137.883 18.4792 138.208 17.7396 138.859 17.2344C139.516 16.7292 140.477 16.4766 141.742 16.4766H143.672V16.25C143.667 15.5521 143.49 15.0469 143.141 14.7344C142.792 14.4167 142.234 14.2578 141.469 14.2578C140.979 14.2578 140.484 14.3281 139.984 14.4688C139.484 14.6094 138.997 14.8151 138.523 15.0859V13.6484C139.055 13.4453 139.562 13.2943 140.047 13.1953C140.536 13.0911 141.01 13.0391 141.469 13.0391C142.193 13.0391 142.81 13.1458 143.32 13.3594C143.836 13.5729 144.253 13.8932 144.57 14.3203C144.768 14.5807 144.909 14.9036 144.992 15.2891C145.076 15.6693 145.117 16.2422 145.117 17.0078ZM146.484 13.25H147.906L149.43 20.3203L150.68 15.8047H151.906L153.172 20.3203L154.695 13.25H156.117L154.07 22H152.695L151.297 17.2031L149.906 22H148.531L146.484 13.25Z" fill="#4EFF22"/>
<rect x="1" y="1" width="234" height="30" stroke="#4EFF22" stroke-width="2"/>
</svg>